<?xml version="1.0" encoding="UTF-8"?>
<!DOCTYPE svg PUBLIC "-//W3C//DTD SVG 1.1//EN" "http://www.w3.org/Graphics/SVG/1.1/DTD/svg11.dtd">
<!-- Creator: CorelDRAW Home & Student X6 -->
<svg xmlns="http://www.w3.org/2000/svg" xml:space="preserve" width="32in" height="18in" version="1.1" style="shape-rendering:geometricPrecision; text-rendering:geometricPrecision; image-rendering:optimizeQuality; fill-rule:evenodd; clip-rule:evenodd"
viewBox="0 0 32000 18000"
 xmlns:xlink="http://www.w3.org/1999/xlink">
 <defs>
  <style type="text/css">
   <![CDATA[
    .str0 {stroke:red;stroke-width:3}
    .fil0 {fill:none}
   ]]>
  </style>
 </defs>
 <g id="Layer_x0020_1">
  <metadata id="CorelCorpID_0Corel-Layer"/>
  <path class="fil0 str0" d="M9311 3419c-239,544 -676,980 -1220,1220l-1910 0c-544,-239 -981,-676 -1220,-1221l0 -1909c239,-544 676,-981 1220,-1220l1910 0c544,239 980,676 1220,1219l0 1911z"/>
  <circle class="fil0 str0" transform="matrix(7.62784E-014 0.960036 -0.960036 7.62784E-014 8645.84 3953.75)" r="78"/>
  <circle class="fil0 str0" transform="matrix(7.62784E-014 0.960036 -0.960036 7.62784E-014 8645.84 933.752)" r="78"/>
  <circle class="fil0 str0" transform="matrix(7.62784E-014 0.960036 -0.960036 7.62784E-014 5625.84 3953.75)" r="78"/>
  <circle class="fil0 str0" transform="matrix(7.62784E-014 0.960036 -0.960036 7.62784E-014 5625.84 933.752)" r="78"/>
  <path class="fil0 str0" d="M9026 2628c-80,922 -818,1655 -1742,1728l0 -201c814,-71 1463,-716 1541,-1527l201 0zm-198 -300c-64,-827 -720,-1487 -1544,-1560l0 -201c935,73 1680,823 1745,1760l-201 0zm-1844 2028c-925,-72 -1663,-806 -1743,-1728l201 0c79,812 728,1456 1542,1527l0 201zm-1746 -2028c65,-937 810,-1688 1746,-1760l0 201c-825,72 -1481,733 -1545,1560l-201 0z"/>
  <path class="fil0 str0" d="M8624 2628c-77,701 -637,1256 -1340,1326l0 -201c592,-68 1064,-535 1139,-1125l201 0zm-198 -300c-62,-606 -539,-1088 -1143,-1158l0 -201c714,71 1280,643 1344,1359l-201 0zm-1443 1626c-703,-70 -1264,-625 -1341,-1326l201 0c75,591 547,1057 1140,1125l0 201zm-1345 -1626c63,-716 630,-1288 1345,-1359l0 201c-604,69 -1082,552 -1144,1158l-201 0z"/>
  <path class="fil0 str0" d="M8221 2628c-73,480 -455,858 -937,923l0 -202c371,-63 665,-352 734,-721l203 0zm-197 -300c-57,-384 -358,-689 -740,-754l0 -202c493,67 881,461 941,956l-202 0zm-1040 1224c-482,-66 -865,-444 -938,-924l203 0c69,369 363,659 735,721l0 202zm-942 -1224c60,-495 449,-889 942,-956l0 202c-382,64 -683,369 -741,754l-202 0z"/>
  <path class="fil0 str0" d="M7814 2628c-63,258 -269,460 -530,517l0 -207c150,-47 269,-163 321,-311l208 0zm-198 -300c-45,-163 -171,-293 -331,-343l0 -207c271,59 484,276 537,550l-205 0zm-631 818c-261,-57 -468,-259 -531,-518l208 0c52,148 172,264 322,311l0 207zm-538 -818c53,-274 266,-491 538,-550l0 207c-161,50 -287,180 -332,343l-205 0z"/>
  <circle class="fil0 str0" transform="matrix(1.18256E-014 0.148837 -0.148837 1.18256E-014 7133.48 2462.07)" r="2016"/>
  <path class="fil0 str0" d="M4664 3392c-239,544 -676,980 -1220,1220l-1910 0c-544,-239 -981,-676 -1220,-1221l0 -1909c239,-544 676,-981 1220,-1220l1910 0c544,239 980,676 1220,1219l0 1911z"/>
  <circle class="fil0 str0" transform="matrix(7.62784E-014 0.960036 -0.960036 7.62784E-014 3998.54 3927.02)" r="78"/>
  <circle class="fil0 str0" transform="matrix(7.62784E-014 0.960036 -0.960036 7.62784E-014 3998.54 907.02)" r="78"/>
  <circle class="fil0 str0" transform="matrix(7.62784E-014 0.960036 -0.960036 7.62784E-014 978.539 3927.02)" r="78"/>
  <circle class="fil0 str0" transform="matrix(7.62784E-014 0.960036 -0.960036 7.62784E-014 978.539 907.02)" r="78"/>
  <g id="_123664856">
   <path class="fil0 str0" d="M3942 1215c595,708 592,1749 -10,2454l-142 -142c525,-626 528,-1540 10,-2170l142 -142zm-352 -72c-630,-539 -1561,-543 -2195,-11l-142 -142c713,-609 1770,-606 2479,11l-142 142zm130 2738c-705,603 -1746,606 -2454,11l142 -142c630,518 1545,515 2171,-11l142 142zm-2668 -199c-617,-709 -620,-1766 -10,-2479l142 142c-532,634 -529,1565 10,2195l-142 142z"/>
   <path class="fil0 str0" d="M3658 1499c441,550 438,1339 -10,1886l-142 -142c371,-467 374,-1130 10,-1601l142 -142zm-352 -72c-472,-384 -1151,-388 -1626,-11l-142 -142c555,-454 1360,-451 1911,11l-142 142zm130 2170c-547,448 -1336,452 -1886,11l142 -142c471,364 1134,361 1602,-10l142 142zm-2101 -199c-462,-551 -465,-1357 -10,-1912l142 142c-378,476 -375,1155 10,1627l-142 142z"/>
   <path class="fil0 str0" d="M3373 1784c288,391 285,928 -10,1316l-143 -143c218,-307 221,-719 9,-1029l143 -143zm-352 -73c-312,-231 -740,-235 -1056,-10l-143 -143c396,-301 949,-297 1342,10l-143 143zm130 1600c-387,295 -925,298 -1316,10l143 -143c310,212 723,209 1030,-10l143 143zm-1532 -199c-308,-393 -311,-946 -10,-1342l143 143c-225,316 -222,744 9,1057l-143 143z"/>
   <path class="fil0 str0" d="M3085 2072c138,227 135,516 -9,740l-146 -146c73,-139 75,-306 7,-447l147 -147zm-352 -72c-147,-83 -328,-86 -477,-8l-146 -146c234,-150 537,-147 768,9l-145 145zm132 1025c-225,144 -514,147 -741,9l147 -147c141,68 308,65 448,-8l146 146zm-958 -198c-156,-231 -159,-535 -9,-769l146 146c-78,150 -76,330 8,478l-145 145z"/>
   <circle class="fil0 str0" transform="matrix(0.105244 0.105244 -0.105244 0.105244 2486.18 2435.34)" r="2016"/>
  </g>
  <path class="fil0 str0" d="M13959 3465c-239,544 -676,980 -1220,1220l-1910 0c-544,-239 -981,-676 -1220,-1221l0 -1909c239,-544 676,-981 1220,-1220l1910 0c544,239 980,676 1220,1219l0 1911z"/>
  <circle class="fil0 str0" transform="matrix(7.62784E-014 0.960036 -0.960036 7.62784E-014 13293.1 3999.37)" r="78"/>
  <circle class="fil0 str0" transform="matrix(7.62784E-014 0.960036 -0.960036 7.62784E-014 13293.1 979.37)" r="78"/>
  <circle class="fil0 str0" transform="matrix(7.62784E-014 0.960036 -0.960036 7.62784E-014 10273.1 3999.37)" r="78"/>
  <circle class="fil0 str0" transform="matrix(7.62784E-014 0.960036 -0.960036 7.62784E-014 10273.1 979.37)" r="78"/>
  <circle class="fil0 str0" transform="matrix(7.62784E-014 0.960036 -0.960036 7.62784E-014 13290.8 977.425)" r="78"/>
  <circle class="fil0 str0" transform="matrix(7.62784E-014 0.960036 -0.960036 7.62784E-014 10270.8 977.425)" r="78"/>
  <path class="fil0 str0" d="M13115 1252c-88,-273 -620,-424 -1220,-392l0 311c136,13 282,40 438,82 76,21 1145,365 782,-2zm-1520 -360c-802,124 -1614,580 -1592,1506l356 0c63,-615 441,-1190 1236,-1234l0 -272zm-1558 1806c9,47 20,94 33,143 221,821 707,1477 1525,1531l0 -295c-218,-22 -451,-101 -691,-255 -325,-209 -524,-655 -552,-1123l-316 0zm1858 1667c98,-10 200,-28 306,-55 659,-164 1230,-935 1266,-1612l-394 0c15,587 -476,1275 -1178,1374l0 294zm1550 -1967c-63,-291 -252,-540 -613,-679 -365,-141 -675,-217 -937,-244l0 312c179,6 387,49 626,140 257,99 416,268 494,470l430 0zm-1850 -931c-651,36 -905,457 -901,931l310 0c73,-263 262,-500 591,-582l0 -350zm-866 1231c105,486 442,956 866,1074l0 -452c-43,2 -88,2 -137,2 -298,-4 -476,-296 -489,-623l-241 0zm1166 1096c199,-26 408,-131 616,-347 287,-297 370,-549 328,-749l-652 0c116,214 121,484 -292,584l0 512zm758 -1396c-188,-163 -484,-250 -758,-253l0 253 758 0zm-1058 -219c-147,39 -267,111 -331,219l331 0 0 -219zm-366 519c10,44 26,90 48,139 1,2 167,141 318,179l0 -319 -366 0z"/>
  <path class="fil0 str0" d="M18573 3405c-239,544 -676,980 -1220,1220l-1910 0c-544,-239 -981,-676 -1220,-1221l0 -1909c239,-544 676,-981 1220,-1220l1910 0c544,239 980,676 1220,1219l0 1911z"/>
  <circle class="fil0 str0" transform="matrix(7.62784E-014 0.960036 -0.960036 7.62784E-014 17907.3 3939.43)" r="78"/>
  <circle class="fil0 str0" transform="matrix(7.62784E-014 0.960036 -0.960036 7.62784E-014 17907.3 919.433)" r="78"/>
  <circle class="fil0 str0" transform="matrix(7.62784E-014 0.960036 -0.960036 7.62784E-014 14887.3 3939.43)" r="78"/>
  <circle class="fil0 str0" transform="matrix(7.62784E-014 0.960036 -0.960036 7.62784E-014 14887.3 919.433)" r="78"/>
  <circle class="fil0 str0" transform="matrix(7.62784E-014 0.960036 -0.960036 7.62784E-014 17904.9 917.488)" r="78"/>
  <circle class="fil0 str0" transform="matrix(7.62784E-014 0.960036 -0.960036 7.62784E-014 14884.9 917.488)" r="78"/>
  <path class="fil0 str0" d="M17751 1175c-837,-595 -3223,-732 -3016,1296 74,728 97,1401 1136,1691 2229,622 3292,-2784 479,-2555 -1234,100 -328,2008 217,1146 2,-4 146,-909 634,-121 254,410 -547,820 -1165,820 -1018,0 -1284,-2415 613,-2156 71,10 1703,428 1121,-108 -1,-1 -17,-11 -19,-12z"/>
  <path class="fil0 str0" d="M23175 3376c-239,544 -676,980 -1220,1220l-1910 0c-544,-239 -981,-676 -1220,-1221l0 -1909c239,-544 676,-981 1220,-1220l1910 0c544,239 980,676 1220,1219l0 1911z"/>
  <circle class="fil0 str0" transform="matrix(7.62784E-014 0.960036 -0.960036 7.62784E-014 22510.1 3910.98)" r="78"/>
  <circle class="fil0 str0" transform="matrix(7.62784E-014 0.960036 -0.960036 7.62784E-014 22510.1 890.984)" r="78"/>
  <circle class="fil0 str0" transform="matrix(7.62784E-014 0.960036 -0.960036 7.62784E-014 19490.1 3910.98)" r="78"/>
  <circle class="fil0 str0" transform="matrix(7.62784E-014 0.960036 -0.960036 7.62784E-014 19490.1 890.984)" r="78"/>
  <circle class="fil0 str0" transform="matrix(7.62784E-014 0.960036 -0.960036 7.62784E-014 22507.8 889.039)" r="78"/>
  <circle class="fil0 str0" transform="matrix(7.62784E-014 0.960036 -0.960036 7.62784E-014 19487.8 889.039)" r="78"/>
  <path class="fil0 str0" d="M22332 1163c-49,-151 -233,-265 -490,-331l-138 378c146,42 363,100 518,116l125 -149c-5,-5 -9,-10 -14,-15zm-629 -360c-151,-27 -320,-39 -497,-35l0 326c109,15 223,38 343,71 4,1 11,3 20,6l134 -368zm-637 -28c-195,13 -396,46 -591,101l85 234c150,-33 318,-45 506,-31l0 -304zm-725 142c-215,72 -418,173 -590,303l193 230c126,-132 285,-238 481,-304l-84 -230zm-698 393c-143,130 -259,287 -333,470l334 193c47,-149 116,-290 209,-414l-209 -250zm-378 606c-45,165 -59,349 -34,555l335 75c-4,-145 9,-292 41,-433l-342 -197zm-10 703c9,44 19,89 32,134 36,132 78,259 127,381l242 -58c-40,-122 -67,-253 -81,-386l-320 -72zm215 644c67,143 144,275 233,395l202 -117c-80,-96 -148,-210 -201,-334l-235 56zm321 505c168,193 370,343 610,431l151 -262c-140,-42 -285,-109 -433,-203 -40,-26 -79,-56 -115,-88l-214 123zm747 473c203,52 430,62 684,21l0 -300c-164,39 -341,45 -528,9l-156 270zm824 -6c18,-4 36,-8 55,-13 164,-41 322,-119 468,-224l-161 -279c-109,84 -230,153 -362,201l0 315zm634 -324c159,-135 300,-302 412,-484l-291 -168c-74,134 -171,259 -285,368l164 284zm482 -605c101,-192 170,-397 196,-596l-387 0c-10,141 -47,285 -107,424l299 172zm207 -736c4,-185 -33,-361 -119,-515l-372 173c55,105 85,221 93,342l398 0zm-199 -633c-88,-109 -207,-203 -363,-274l-218 260c86,53 156,116 211,187l369 -172zm-499 -329c-135,-50 -262,-91 -382,-124l-101 279c74,20 152,46 234,77 14,5 28,11 41,17l209 -249zm-518 -159c-92,-22 -179,-38 -262,-50l0 307c51,5 104,13 160,24l102 -281zm-402 -65c-150,-12 -284,-7 -402,12l123 339c83,-23 176,-36 278,-36l0 -315zm-540 42c-171,50 -303,135 -399,243l264 315c69,-82 157,-151 265,-201l-130 -357zm-485 359c-63,104 -101,223 -119,349l299 173c20,-71 49,-140 86,-205l-266 -317zm-130 504c-1,112 13,228 39,343l242 54c-9,-76 -9,-156 0,-235l-281 -162zm82 495c22,66 48,130 77,192l189 -45c-14,-30 -26,-62 -36,-96l-230 -51zm143 319c45,77 95,151 151,218l217 -125c-67,-31 -124,-79 -171,-139l-197 47zm248 323c100,98 212,176 333,226l250 -433c-73,9 -156,14 -249,14l-334 193zm470 269c118,26 241,24 368,-11l0 -525c-23,9 -47,17 -73,25l-295 511zm508 -64c75,-36 151,-84 227,-145l-227 -393 0 538zm333 -241c11,-10 21,-21 32,-32 74,-76 134,-150 182,-220l-440 -254c-3,27 -10,53 -20,78l247 428zm286 -372c58,-112 84,-216 84,-310l-619 0 0 1 534 308zm64 -450c-24,-80 -68,-152 -127,-214l-458 214 586 0zm-245 -313c-37,-25 -76,-48 -118,-69l-170 203 288 -134zm-253 -125c-52,-18 -107,-33 -162,-45l-122 336c7,7 14,14 21,22l263 -314zm-303 -67c-13,-1 -25,-3 -38,-4l0 109 38 -105zm-178 -8c-54,1 -106,6 -156,14l81 221 -132 48 -86 -237c-76,24 -143,57 -197,101l237 282 -107 90 -223 -266c-22,37 -37,77 -44,122l178 103 -70 121 -103 -59c10,48 27,99 51,154 2,4 698,584 537,-311 -14,-76 3,-113 36,-121l0 -261z"/>
  <path class="fil0 str0" d="M27755 3372c-239,544 -676,980 -1220,1220l-1910 0c-544,-239 -981,-676 -1220,-1221l0 -1909c239,-544 676,-981 1220,-1220l1910 0c544,239 980,676 1220,1219l0 1911z"/>
  <circle class="fil0 str0" transform="matrix(7.62784E-014 0.960036 -0.960036 7.62784E-014 27089.8 3906.99)" r="78"/>
  <circle class="fil0 str0" transform="matrix(7.62784E-014 0.960036 -0.960036 7.62784E-014 27089.8 886.992)" r="78"/>
  <circle class="fil0 str0" transform="matrix(7.62784E-014 0.960036 -0.960036 7.62784E-014 24069.8 3906.99)" r="78"/>
  <circle class="fil0 str0" transform="matrix(7.62784E-014 0.960036 -0.960036 7.62784E-014 24069.8 886.992)" r="78"/>
  <path class="fil0 str0" d="M25755 2937c0,38 1,105 -27,140l0 373c140,-42 249,-157 287,-372 27,-151 -179,-114 -260,-141zm-370 200c-266,-191 -527,-673 0,-691l0 -323c-1143,308 -568,1133 0,1312l0 -297zm344 -656c969,200 584,968 0,1218l0 587c202,-33 418,-109 644,-237 1024,-583 471,-2011 -644,-1980l0 412zm-344 1296c-131,4 -262,-25 -380,-97 -911,-551 -617,-1481 380,-1868l0 -506c-88,28 -190,58 -311,90 -1636,433 -1109,2786 311,2904l0 -523zm344 -2069c29,-7 58,-13 87,-18 1207,-233 32,-1775 -464,-1048 -21,31 8,130 79,145 21,103 639,181 298,380l0 541z"/>
 </g>
</svg>
