<?xml version="1.0" encoding="UTF-8"?>
<!DOCTYPE svg PUBLIC "-//W3C//DTD SVG 1.1//EN" "http://www.w3.org/Graphics/SVG/1.1/DTD/svg11.dtd">
<!-- Creator: CorelDRAW Home & Student X6 -->
<svg xmlns="http://www.w3.org/2000/svg" xml:space="preserve" width="32in" height="18in" version="1.1" style="shape-rendering:geometricPrecision; text-rendering:geometricPrecision; image-rendering:optimizeQuality; fill-rule:evenodd; clip-rule:evenodd"
viewBox="0 0 32000 18000"
 xmlns:xlink="http://www.w3.org/1999/xlink">
 <defs>
  <style type="text/css">
   <![CDATA[
    .str0 {stroke:red;stroke-width:3}
    .fil1 {fill:none}
    .fil0 {fill:none;fill-rule:nonzero}
   ]]>
  </style>
 </defs>
 <g id="Layer_x0020_1">
  <metadata id="CorelCorpID_0Corel-Layer"/>
  <line class="fil0 str0" x1="163" y1="6804" x2="679" y2= "6804" />
  <line class="fil0 str0" x1="679" y1="6604" x2="679" y2= "6804" />
  <line class="fil0 str0" x1="679" y1="6604" x2="1194" y2= "6604" />
  <line class="fil0 str0" x1="1194" y1="6604" x2="1194" y2= "6804" />
  <line class="fil0 str0" x1="1194" y1="6804" x2="1710" y2= "6804" />
  <line class="fil0 str0" x1="1710" y1="6604" x2="1710" y2= "6804" />
  <line class="fil0 str0" x1="1710" y1="6604" x2="2226" y2= "6604" />
  <line class="fil0 str0" x1="2226" y1="6604" x2="2226" y2= "6804" />
  <line class="fil0 str0" x1="2226" y1="6804" x2="2741" y2= "6804" />
  <line class="fil0 str0" x1="2741" y1="6604" x2="2741" y2= "6804" />
  <line class="fil0 str0" x1="2741" y1="6604" x2="3257" y2= "6604" />
  <line class="fil0 str0" x1="3257" y1="6604" x2="3257" y2= "6804" />
  <line class="fil0 str0" x1="3257" y1="6804" x2="3773" y2= "6804" />
  <line class="fil0 str0" x1="3773" y1="6604" x2="3773" y2= "6804" />
  <line class="fil0 str0" x1="3773" y1="6604" x2="4289" y2= "6604" />
  <line class="fil0 str0" x1="4289" y1="6604" x2="4289" y2= "6804" />
  <line class="fil0 str0" x1="4289" y1="6804" x2="4804" y2= "6804" />
  <line class="fil0 str0" x1="4804" y1="6604" x2="4804" y2= "6804" />
  <line class="fil0 str0" x1="4804" y1="6604" x2="5320" y2= "6604" />
  <line class="fil0 str0" x1="5320" y1="6604" x2="5320" y2= "6804" />
  <line class="fil0 str0" x1="5320" y1="6804" x2="5836" y2= "6804" />
  <line class="fil0 str0" x1="5836" y1="6604" x2="5836" y2= "6804" />
  <line class="fil0 str0" x1="5836" y1="6604" x2="6351" y2= "6604" />
  <line class="fil0 str0" x1="6351" y1="6604" x2="6351" y2= "6804" />
  <line class="fil0 str0" x1="6351" y1="6804" x2="6867" y2= "6804" />
  <line class="fil0 str0" x1="6867" y1="6604" x2="6867" y2= "6804" />
  <line class="fil0 str0" x1="6867" y1="6604" x2="7383" y2= "6604" />
  <line class="fil0 str0" x1="7383" y1="6604" x2="7383" y2= "6804" />
  <line class="fil0 str0" x1="7383" y1="6804" x2="7899" y2= "6804" />
  <line class="fil0 str0" x1="7899" y1="6604" x2="7899" y2= "6804" />
  <line class="fil0 str0" x1="7899" y1="6604" x2="8414" y2= "6604" />
  <line class="fil0 str0" x1="8414" y1="6604" x2="8414" y2= "6804" />
  <line class="fil0 str0" x1="8414" y1="6804" x2="8930" y2= "6804" />
  <line class="fil0 str0" x1="8930" y1="6604" x2="8930" y2= "6804" />
  <line class="fil0 str0" x1="8930" y1="6604" x2="9446" y2= "6604" />
  <line class="fil0 str0" x1="9446" y1="6604" x2="9446" y2= "6804" />
  <line class="fil0 str0" x1="9446" y1="6804" x2="9961" y2= "6804" />
  <line class="fil0 str0" x1="9961" y1="6604" x2="9961" y2= "6804" />
  <line class="fil0 str0" x1="9961" y1="6604" x2="10477" y2= "6604" />
  <line class="fil0 str0" x1="10477" y1="6604" x2="10477" y2= "6804" />
  <line class="fil0 str0" x1="10477" y1="6804" x2="10993" y2= "6804" />
  <line class="fil0 str0" x1="10993" y1="6604" x2="10993" y2= "6804" />
  <line class="fil0 str0" x1="10993" y1="6604" x2="11509" y2= "6604" />
  <line class="fil0 str0" x1="11509" y1="6604" x2="11509" y2= "6804" />
  <line class="fil0 str0" x1="11509" y1="6804" x2="12024" y2= "6804" />
  <line class="fil0 str0" x1="12024" y1="6604" x2="12024" y2= "6804" />
  <line class="fil0 str0" x1="12024" y1="6604" x2="12540" y2= "6604" />
  <line class="fil0 str0" x1="12540" y1="6604" x2="12540" y2= "6804" />
  <line class="fil0 str0" x1="12540" y1="6804" x2="13056" y2= "6804" />
  <line class="fil0 str0" x1="13056" y1="6604" x2="13056" y2= "6804" />
  <line class="fil0 str0" x1="13056" y1="6604" x2="13571" y2= "6604" />
  <line class="fil0 str0" x1="13571" y1="6604" x2="13571" y2= "6804" />
  <line class="fil0 str0" x1="13571" y1="6804" x2="14087" y2= "6804" />
  <line class="fil0 str0" x1="14087" y1="6604" x2="14087" y2= "6804" />
  <line class="fil0 str0" x1="14087" y1="6604" x2="14603" y2= "6604" />
  <line class="fil0 str0" x1="14603" y1="6604" x2="14603" y2= "6804" />
  <line class="fil0 str0" x1="14603" y1="6804" x2="15119" y2= "6804" />
  <line class="fil0 str0" x1="15119" y1="6604" x2="15119" y2= "6804" />
  <line class="fil0 str0" x1="15119" y1="6604" x2="15634" y2= "6604" />
  <line class="fil0 str0" x1="15634" y1="6604" x2="15634" y2= "6804" />
  <line class="fil0 str0" x1="15634" y1="6804" x2="16150" y2= "6804" />
  <line class="fil0 str0" x1="16150" y1="6604" x2="16150" y2= "6804" />
  <line class="fil0 str0" x1="16150" y1="6604" x2="16666" y2= "6604" />
  <line class="fil0 str0" x1="16666" y1="6604" x2="16666" y2= "6804" />
  <line class="fil0 str0" x1="16666" y1="6804" x2="17181" y2= "6804" />
  <line class="fil0 str0" x1="17181" y1="6604" x2="17181" y2= "6804" />
  <line class="fil0 str0" x1="17181" y1="6604" x2="17697" y2= "6604" />
  <line class="fil0 str0" x1="17697" y1="6604" x2="17697" y2= "6804" />
  <line class="fil0 str0" x1="17697" y1="6804" x2="18013" y2= "6804" />
  <line class="fil0 str0" x1="163" y1="154" x2="679" y2= "154" />
  <line class="fil0 str0" x1="679" y1="154" x2="679" y2= "354" />
  <line class="fil0 str0" x1="679" y1="354" x2="1194" y2= "354" />
  <line class="fil0 str0" x1="1194" y1="154" x2="1194" y2= "354" />
  <line class="fil0 str0" x1="1194" y1="154" x2="1710" y2= "154" />
  <line class="fil0 str0" x1="1710" y1="154" x2="1710" y2= "354" />
  <line class="fil0 str0" x1="1710" y1="354" x2="2226" y2= "354" />
  <line class="fil0 str0" x1="2226" y1="154" x2="2226" y2= "354" />
  <line class="fil0 str0" x1="2226" y1="154" x2="2741" y2= "154" />
  <line class="fil0 str0" x1="2741" y1="154" x2="2741" y2= "354" />
  <line class="fil0 str0" x1="2741" y1="354" x2="3257" y2= "354" />
  <line class="fil0 str0" x1="3257" y1="154" x2="3257" y2= "354" />
  <line class="fil0 str0" x1="3257" y1="154" x2="3773" y2= "154" />
  <line class="fil0 str0" x1="3773" y1="154" x2="3773" y2= "354" />
  <line class="fil0 str0" x1="3773" y1="354" x2="4289" y2= "354" />
  <line class="fil0 str0" x1="4289" y1="154" x2="4289" y2= "354" />
  <line class="fil0 str0" x1="4289" y1="154" x2="4804" y2= "154" />
  <line class="fil0 str0" x1="4804" y1="154" x2="4804" y2= "354" />
  <line class="fil0 str0" x1="4804" y1="354" x2="5320" y2= "354" />
  <line class="fil0 str0" x1="5320" y1="154" x2="5320" y2= "354" />
  <line class="fil0 str0" x1="5320" y1="154" x2="5836" y2= "154" />
  <line class="fil0 str0" x1="5836" y1="154" x2="5836" y2= "354" />
  <line class="fil0 str0" x1="5836" y1="354" x2="6351" y2= "354" />
  <line class="fil0 str0" x1="6351" y1="154" x2="6351" y2= "354" />
  <line class="fil0 str0" x1="6351" y1="154" x2="6867" y2= "154" />
  <line class="fil0 str0" x1="6867" y1="154" x2="6867" y2= "354" />
  <line class="fil0 str0" x1="6867" y1="354" x2="7383" y2= "354" />
  <line class="fil0 str0" x1="7383" y1="154" x2="7383" y2= "354" />
  <line class="fil0 str0" x1="7383" y1="154" x2="7899" y2= "154" />
  <line class="fil0 str0" x1="7899" y1="154" x2="7899" y2= "354" />
  <line class="fil0 str0" x1="7899" y1="354" x2="8414" y2= "354" />
  <line class="fil0 str0" x1="8414" y1="154" x2="8414" y2= "354" />
  <line class="fil0 str0" x1="8414" y1="154" x2="8930" y2= "154" />
  <line class="fil0 str0" x1="8930" y1="154" x2="8930" y2= "354" />
  <line class="fil0 str0" x1="8930" y1="354" x2="9446" y2= "354" />
  <line class="fil0 str0" x1="9446" y1="154" x2="9446" y2= "354" />
  <line class="fil0 str0" x1="9446" y1="154" x2="9961" y2= "154" />
  <line class="fil0 str0" x1="9961" y1="154" x2="9961" y2= "354" />
  <line class="fil0 str0" x1="9961" y1="354" x2="10477" y2= "354" />
  <line class="fil0 str0" x1="10477" y1="154" x2="10477" y2= "354" />
  <line class="fil0 str0" x1="10477" y1="154" x2="10993" y2= "154" />
  <line class="fil0 str0" x1="10993" y1="154" x2="10993" y2= "354" />
  <line class="fil0 str0" x1="10993" y1="354" x2="11509" y2= "354" />
  <line class="fil0 str0" x1="11509" y1="154" x2="11509" y2= "354" />
  <line class="fil0 str0" x1="11509" y1="154" x2="12024" y2= "154" />
  <line class="fil0 str0" x1="12024" y1="154" x2="12024" y2= "354" />
  <line class="fil0 str0" x1="12024" y1="354" x2="12540" y2= "354" />
  <line class="fil0 str0" x1="12540" y1="154" x2="12540" y2= "354" />
  <line class="fil0 str0" x1="12540" y1="154" x2="13056" y2= "154" />
  <line class="fil0 str0" x1="13056" y1="154" x2="13056" y2= "354" />
  <line class="fil0 str0" x1="13056" y1="354" x2="13571" y2= "354" />
  <line class="fil0 str0" x1="13571" y1="154" x2="13571" y2= "354" />
  <line class="fil0 str0" x1="13571" y1="154" x2="14087" y2= "154" />
  <line class="fil0 str0" x1="14087" y1="154" x2="14087" y2= "354" />
  <line class="fil0 str0" x1="14087" y1="354" x2="14603" y2= "354" />
  <line class="fil0 str0" x1="14603" y1="154" x2="14603" y2= "354" />
  <line class="fil0 str0" x1="14603" y1="154" x2="15119" y2= "154" />
  <line class="fil0 str0" x1="15119" y1="154" x2="15119" y2= "354" />
  <line class="fil0 str0" x1="15119" y1="354" x2="15634" y2= "354" />
  <line class="fil0 str0" x1="15634" y1="154" x2="15634" y2= "354" />
  <line class="fil0 str0" x1="15634" y1="154" x2="16150" y2= "154" />
  <line class="fil0 str0" x1="16150" y1="154" x2="16150" y2= "354" />
  <line class="fil0 str0" x1="16150" y1="354" x2="16666" y2= "354" />
  <line class="fil0 str0" x1="16666" y1="154" x2="16666" y2= "354" />
  <line class="fil0 str0" x1="16666" y1="154" x2="17181" y2= "154" />
  <line class="fil0 str0" x1="17181" y1="154" x2="17181" y2= "354" />
  <line class="fil0 str0" x1="17181" y1="354" x2="17697" y2= "354" />
  <line class="fil0 str0" x1="17697" y1="154" x2="17697" y2= "354" />
  <line class="fil0 str0" x1="17697" y1="154" x2="18013" y2= "154" />
  <line class="fil0 str0" x1="163" y1="6804" x2="163" y2= "6293" />
  <line class="fil0 str0" x1="562" y1="6293" x2="162" y2= "6293" />
  <line class="fil0 str0" x1="562" y1="6293" x2="562" y2= "5781" />
  <line class="fil0 str0" x1="562" y1="5781" x2="162" y2= "5781" />
  <line class="fil0 str0" x1="163" y1="5781" x2="163" y2= "5270" />
  <line class="fil0 str0" x1="562" y1="5270" x2="162" y2= "5270" />
  <line class="fil0 str0" x1="562" y1="5270" x2="562" y2= "4758" />
  <line class="fil0 str0" x1="562" y1="4758" x2="162" y2= "4758" />
  <line class="fil0 str0" x1="163" y1="4758" x2="163" y2= "4247" />
  <line class="fil0 str0" x1="562" y1="4247" x2="162" y2= "4247" />
  <line class="fil0 str0" x1="562" y1="4247" x2="562" y2= "3735" />
  <line class="fil0 str0" x1="562" y1="3735" x2="162" y2= "3735" />
  <line class="fil0 str0" x1="163" y1="3735" x2="163" y2= "3223" />
  <line class="fil0 str0" x1="562" y1="3223" x2="162" y2= "3223" />
  <line class="fil0 str0" x1="562" y1="3223" x2="562" y2= "2712" />
  <line class="fil0 str0" x1="562" y1="2712" x2="162" y2= "2712" />
  <line class="fil0 str0" x1="163" y1="2712" x2="163" y2= "2200" />
  <line class="fil0 str0" x1="562" y1="2200" x2="162" y2= "2200" />
  <line class="fil0 str0" x1="562" y1="2200" x2="562" y2= "1689" />
  <line class="fil0 str0" x1="562" y1="1689" x2="162" y2= "1689" />
  <line class="fil0 str0" x1="163" y1="1689" x2="163" y2= "1177" />
  <line class="fil0 str0" x1="562" y1="1177" x2="162" y2= "1177" />
  <line class="fil0 str0" x1="562" y1="1177" x2="562" y2= "666" />
  <line class="fil0 str0" x1="562" y1="666" x2="162" y2= "666" />
  <line class="fil0 str0" x1="163" y1="666" x2="163" y2= "154" />
  <line class="fil0 str0" x1="17812" y1="6804" x2="17812" y2= "6293" />
  <line class="fil0 str0" x1="18212" y1="6293" x2="17812" y2= "6293" />
  <line class="fil0 str0" x1="18213" y1="6293" x2="18213" y2= "5781" />
  <line class="fil0 str0" x1="18212" y1="5781" x2="17812" y2= "5781" />
  <line class="fil0 str0" x1="17812" y1="5781" x2="17812" y2= "5270" />
  <line class="fil0 str0" x1="18212" y1="5270" x2="17812" y2= "5270" />
  <line class="fil0 str0" x1="18213" y1="5270" x2="18213" y2= "4758" />
  <line class="fil0 str0" x1="18212" y1="4758" x2="17812" y2= "4758" />
  <line class="fil0 str0" x1="17812" y1="4758" x2="17812" y2= "4247" />
  <line class="fil0 str0" x1="18212" y1="4247" x2="17812" y2= "4247" />
  <line class="fil0 str0" x1="18213" y1="4247" x2="18213" y2= "3735" />
  <line class="fil0 str0" x1="18212" y1="3735" x2="17812" y2= "3735" />
  <line class="fil0 str0" x1="17812" y1="3735" x2="17812" y2= "3223" />
  <line class="fil0 str0" x1="18212" y1="3223" x2="17812" y2= "3223" />
  <line class="fil0 str0" x1="18213" y1="3223" x2="18213" y2= "2712" />
  <line class="fil0 str0" x1="18212" y1="2712" x2="17812" y2= "2712" />
  <line class="fil0 str0" x1="17812" y1="2712" x2="17812" y2= "2200" />
  <line class="fil0 str0" x1="18212" y1="2200" x2="17812" y2= "2200" />
  <line class="fil0 str0" x1="18213" y1="2200" x2="18213" y2= "1689" />
  <line class="fil0 str0" x1="18212" y1="1689" x2="17812" y2= "1689" />
  <line class="fil0 str0" x1="17812" y1="1689" x2="17812" y2= "1177" />
  <line class="fil0 str0" x1="18212" y1="1177" x2="17812" y2= "1177" />
  <line class="fil0 str0" x1="18213" y1="1177" x2="18213" y2= "666" />
  <line class="fil0 str0" x1="18212" y1="666" x2="17812" y2= "666" />
  <line class="fil0 str0" x1="17812" y1="666" x2="17812" y2= "154" />
  <rect class="fil1 str0" x="2148" y="1406" width="14000" height="4150"/>
  <circle class="fil1 str0" cx="5135" cy="5772" r="30"/>
  <circle class="fil1 str0" cx="12716" cy="5784" r="30"/>
  <circle class="fil1 str0" cx="8899" cy="5783" r="30"/>
  <circle class="fil1 str0" cx="5136" cy="1167" r="30"/>
  <circle class="fil1 str0" cx="12717" cy="1179" r="30"/>
  <circle class="fil1 str0" cx="8899" cy="1179" r="30"/>
  <circle class="fil1 str0" transform="matrix(4.86658E-015 -0.183752 0.183752 4.86658E-015 16389.9 2128.03)" r="163"/>
  <circle class="fil1 str0" transform="matrix(4.86658E-015 -0.183752 0.183752 4.86658E-015 16389.8 4625.16)" r="163"/>
  <circle class="fil1 str0" transform="matrix(4.86658E-015 -0.183752 0.183752 4.86658E-015 1913.98 2127.81)" r="163"/>
  <circle class="fil1 str0" transform="matrix(4.86658E-015 -0.183752 0.183752 4.86658E-015 1913.83 4624.95)" r="163"/>
  <circle class="fil1 str0" cx="3801" cy="11997" r="50"/>
  <circle class="fil1 str0" cx="11383" cy="12009" r="50"/>
  <circle class="fil1 str0" cx="7565" cy="12008" r="50"/>
  <circle class="fil1 str0" cx="3802" cy="7392" r="50"/>
  <circle class="fil1 str0" cx="11383" cy="7404" r="60"/>
  <circle class="fil1 str0" cx="7566" cy="7404" r="60"/>
  <circle class="fil1 str0" transform="matrix(9.73316E-015 -0.367503 0.367503 9.73316E-015 15056.3 8353)" r="163"/>
  <circle class="fil1 str0" transform="matrix(9.73316E-015 -0.367503 0.367503 9.73316E-015 15056.2 10850.1)" r="163"/>
  <circle class="fil1 str0" transform="matrix(8.11097E-015 -0.306253 0.306253 8.11097E-015 580.346 8352.78)" r="163"/>
  <circle class="fil1 str0" transform="matrix(9.73316E-015 -0.367503 0.367503 9.73316E-015 580.205 10849.9)" r="163"/>
  <rect class="fil1 str0" x="215" y="7031" width="15200" height="5350"/>
 </g>
</svg>
