<?xml version="1.0" encoding="UTF-8"?>
<!DOCTYPE svg PUBLIC "-//W3C//DTD SVG 1.1//EN" "http://www.w3.org/Graphics/SVG/1.1/DTD/svg11.dtd">
<!-- Creator: CorelDRAW Home & Student X6 -->
<svg xmlns="http://www.w3.org/2000/svg" xml:space="preserve" width="32in" height="18in" version="1.1" style="shape-rendering:geometricPrecision; text-rendering:geometricPrecision; image-rendering:optimizeQuality; fill-rule:evenodd; clip-rule:evenodd"
viewBox="0 0 32000 18000"
 xmlns:xlink="http://www.w3.org/1999/xlink">
 <defs>
  <style type="text/css">
   <![CDATA[
    .str0 {stroke:red;stroke-width:3}
    .fil1 {fill:none}
    .fil0 {fill:none;fill-rule:nonzero}
   ]]>
  </style>
 </defs>
 <g id="Layer_x0020_1">
  <metadata id="CorelCorpID_0Corel-Layer"/>
  <line class="fil0 str0" x1="434" y1="4776" x2="750" y2= "4776" />
  <line class="fil0 str0" x1="750" y1="4776" x2="750" y2= "4976" />
  <line class="fil0 str0" x1="750" y1="4976" x2="1266" y2= "4976" />
  <line class="fil0 str0" x1="1266" y1="4776" x2="1266" y2= "4976" />
  <line class="fil0 str0" x1="1266" y1="4776" x2="1782" y2= "4776" />
  <line class="fil0 str0" x1="1782" y1="4776" x2="1782" y2= "4976" />
  <line class="fil0 str0" x1="1782" y1="4976" x2="2297" y2= "4976" />
  <line class="fil0 str0" x1="2297" y1="4776" x2="2297" y2= "4976" />
  <line class="fil0 str0" x1="2297" y1="4776" x2="2813" y2= "4776" />
  <line class="fil0 str0" x1="2813" y1="4776" x2="2813" y2= "4976" />
  <line class="fil0 str0" x1="2813" y1="4976" x2="3329" y2= "4976" />
  <line class="fil0 str0" x1="3329" y1="4776" x2="3329" y2= "4976" />
  <line class="fil0 str0" x1="3329" y1="4776" x2="3844" y2= "4776" />
  <line class="fil0 str0" x1="3844" y1="4776" x2="3844" y2= "4976" />
  <line class="fil0 str0" x1="3844" y1="4976" x2="4360" y2= "4976" />
  <line class="fil0 str0" x1="4360" y1="4776" x2="4360" y2= "4976" />
  <line class="fil0 str0" x1="4360" y1="4776" x2="4876" y2= "4776" />
  <line class="fil0 str0" x1="4876" y1="4776" x2="4876" y2= "4976" />
  <line class="fil0 str0" x1="4876" y1="4976" x2="5392" y2= "4976" />
  <line class="fil0 str0" x1="5392" y1="4776" x2="5392" y2= "4976" />
  <line class="fil0 str0" x1="5392" y1="4776" x2="5907" y2= "4776" />
  <line class="fil0 str0" x1="5907" y1="4776" x2="5907" y2= "4976" />
  <line class="fil0 str0" x1="5907" y1="4976" x2="6423" y2= "4976" />
  <line class="fil0 str0" x1="6423" y1="4776" x2="6423" y2= "4976" />
  <line class="fil0 str0" x1="6423" y1="4776" x2="6939" y2= "4776" />
  <line class="fil0 str0" x1="6939" y1="4776" x2="6939" y2= "4976" />
  <line class="fil0 str0" x1="6939" y1="4976" x2="7454" y2= "4976" />
  <line class="fil0 str0" x1="7454" y1="4776" x2="7454" y2= "4976" />
  <line class="fil0 str0" x1="7454" y1="4776" x2="7970" y2= "4776" />
  <line class="fil0 str0" x1="7970" y1="4776" x2="7970" y2= "4976" />
  <line class="fil0 str0" x1="7970" y1="4976" x2="8486" y2= "4976" />
  <line class="fil0 str0" x1="8486" y1="4776" x2="8486" y2= "4976" />
  <line class="fil0 str0" x1="8486" y1="4776" x2="9002" y2= "4776" />
  <line class="fil0 str0" x1="9002" y1="4776" x2="9002" y2= "4976" />
  <line class="fil0 str0" x1="9002" y1="4976" x2="9517" y2= "4976" />
  <line class="fil0 str0" x1="9517" y1="4776" x2="9517" y2= "4976" />
  <line class="fil0 str0" x1="9517" y1="4776" x2="10033" y2= "4776" />
  <line class="fil0 str0" x1="10033" y1="4776" x2="10033" y2= "4976" />
  <line class="fil0 str0" x1="10033" y1="4976" x2="10549" y2= "4976" />
  <line class="fil0 str0" x1="10549" y1="4776" x2="10549" y2= "4976" />
  <line class="fil0 str0" x1="10549" y1="4776" x2="11064" y2= "4776" />
  <line class="fil0 str0" x1="11064" y1="4776" x2="11064" y2= "4976" />
  <line class="fil0 str0" x1="11064" y1="4976" x2="11580" y2= "4976" />
  <line class="fil0 str0" x1="11580" y1="4776" x2="11580" y2= "4976" />
  <line class="fil0 str0" x1="11580" y1="4776" x2="12096" y2= "4776" />
  <line class="fil0 str0" x1="12096" y1="4776" x2="12096" y2= "4976" />
  <line class="fil0 str0" x1="12096" y1="4976" x2="12612" y2= "4976" />
  <line class="fil0 str0" x1="12612" y1="4776" x2="12612" y2= "4976" />
  <line class="fil0 str0" x1="12612" y1="4776" x2="13127" y2= "4776" />
  <line class="fil0 str0" x1="13127" y1="4776" x2="13127" y2= "4976" />
  <line class="fil0 str0" x1="13127" y1="4976" x2="13643" y2= "4976" />
  <line class="fil0 str0" x1="13643" y1="4776" x2="13643" y2= "4976" />
  <line class="fil0 str0" x1="13643" y1="4776" x2="14159" y2= "4776" />
  <line class="fil0 str0" x1="14159" y1="4776" x2="14159" y2= "4976" />
  <line class="fil0 str0" x1="14159" y1="4976" x2="14674" y2= "4976" />
  <line class="fil0 str0" x1="14674" y1="4776" x2="14674" y2= "4976" />
  <line class="fil0 str0" x1="14674" y1="4776" x2="15190" y2= "4776" />
  <line class="fil0 str0" x1="15190" y1="4776" x2="15190" y2= "4976" />
  <line class="fil0 str0" x1="15190" y1="4976" x2="15706" y2= "4976" />
  <line class="fil0 str0" x1="15706" y1="4776" x2="15706" y2= "4976" />
  <line class="fil0 str0" x1="15706" y1="4776" x2="16222" y2= "4776" />
  <line class="fil0 str0" x1="16222" y1="4776" x2="16222" y2= "4976" />
  <line class="fil0 str0" x1="16222" y1="4976" x2="16737" y2= "4976" />
  <line class="fil0 str0" x1="16737" y1="4776" x2="16737" y2= "4976" />
  <line class="fil0 str0" x1="16737" y1="4776" x2="17253" y2= "4776" />
  <line class="fil0 str0" x1="17253" y1="4776" x2="17253" y2= "4976" />
  <line class="fil0 str0" x1="17253" y1="4976" x2="17769" y2= "4976" />
  <line class="fil0 str0" x1="17769" y1="4776" x2="17769" y2= "4976" />
  <line class="fil0 str0" x1="17769" y1="4776" x2="18084" y2= "4776" />
  <line class="fil0 str0" x1="434" y1="426" x2="750" y2= "426" />
  <line class="fil0 str0" x1="750" y1="226" x2="750" y2= "426" />
  <line class="fil0 str0" x1="750" y1="226" x2="1266" y2= "226" />
  <line class="fil0 str0" x1="1266" y1="226" x2="1266" y2= "426" />
  <line class="fil0 str0" x1="1266" y1="426" x2="1782" y2= "426" />
  <line class="fil0 str0" x1="1782" y1="226" x2="1782" y2= "426" />
  <line class="fil0 str0" x1="1782" y1="226" x2="2297" y2= "226" />
  <line class="fil0 str0" x1="2297" y1="226" x2="2297" y2= "426" />
  <line class="fil0 str0" x1="2297" y1="426" x2="2813" y2= "426" />
  <line class="fil0 str0" x1="2813" y1="226" x2="2813" y2= "426" />
  <line class="fil0 str0" x1="2813" y1="226" x2="3329" y2= "226" />
  <line class="fil0 str0" x1="3329" y1="226" x2="3329" y2= "426" />
  <line class="fil0 str0" x1="3329" y1="426" x2="3844" y2= "426" />
  <line class="fil0 str0" x1="3844" y1="226" x2="3844" y2= "426" />
  <line class="fil0 str0" x1="3844" y1="226" x2="4360" y2= "226" />
  <line class="fil0 str0" x1="4360" y1="226" x2="4360" y2= "426" />
  <line class="fil0 str0" x1="4360" y1="426" x2="4876" y2= "426" />
  <line class="fil0 str0" x1="4876" y1="226" x2="4876" y2= "426" />
  <line class="fil0 str0" x1="4876" y1="226" x2="5392" y2= "226" />
  <line class="fil0 str0" x1="5392" y1="226" x2="5392" y2= "426" />
  <line class="fil0 str0" x1="5392" y1="426" x2="5907" y2= "426" />
  <line class="fil0 str0" x1="5907" y1="226" x2="5907" y2= "426" />
  <line class="fil0 str0" x1="5907" y1="226" x2="6423" y2= "226" />
  <line class="fil0 str0" x1="6423" y1="226" x2="6423" y2= "426" />
  <line class="fil0 str0" x1="6423" y1="426" x2="6939" y2= "426" />
  <line class="fil0 str0" x1="6939" y1="226" x2="6939" y2= "426" />
  <line class="fil0 str0" x1="6939" y1="226" x2="7454" y2= "226" />
  <line class="fil0 str0" x1="7454" y1="226" x2="7454" y2= "426" />
  <line class="fil0 str0" x1="7454" y1="426" x2="7970" y2= "426" />
  <line class="fil0 str0" x1="7970" y1="226" x2="7970" y2= "426" />
  <line class="fil0 str0" x1="7970" y1="226" x2="8486" y2= "226" />
  <line class="fil0 str0" x1="8486" y1="226" x2="8486" y2= "426" />
  <line class="fil0 str0" x1="8486" y1="426" x2="9002" y2= "426" />
  <line class="fil0 str0" x1="9002" y1="226" x2="9002" y2= "426" />
  <line class="fil0 str0" x1="9002" y1="226" x2="9517" y2= "226" />
  <line class="fil0 str0" x1="9517" y1="226" x2="9517" y2= "426" />
  <line class="fil0 str0" x1="9517" y1="426" x2="10033" y2= "426" />
  <line class="fil0 str0" x1="10033" y1="226" x2="10033" y2= "426" />
  <line class="fil0 str0" x1="10033" y1="226" x2="10549" y2= "226" />
  <line class="fil0 str0" x1="10549" y1="226" x2="10549" y2= "426" />
  <line class="fil0 str0" x1="10549" y1="426" x2="11064" y2= "426" />
  <line class="fil0 str0" x1="11064" y1="226" x2="11064" y2= "426" />
  <line class="fil0 str0" x1="11064" y1="226" x2="11580" y2= "226" />
  <line class="fil0 str0" x1="11580" y1="226" x2="11580" y2= "426" />
  <line class="fil0 str0" x1="11580" y1="426" x2="12096" y2= "426" />
  <line class="fil0 str0" x1="12096" y1="226" x2="12096" y2= "426" />
  <line class="fil0 str0" x1="12096" y1="226" x2="12612" y2= "226" />
  <line class="fil0 str0" x1="12612" y1="226" x2="12612" y2= "426" />
  <line class="fil0 str0" x1="12612" y1="426" x2="13127" y2= "426" />
  <line class="fil0 str0" x1="13127" y1="226" x2="13127" y2= "426" />
  <line class="fil0 str0" x1="13127" y1="226" x2="13643" y2= "226" />
  <line class="fil0 str0" x1="13643" y1="226" x2="13643" y2= "426" />
  <line class="fil0 str0" x1="13643" y1="426" x2="14159" y2= "426" />
  <line class="fil0 str0" x1="14159" y1="226" x2="14159" y2= "426" />
  <line class="fil0 str0" x1="14159" y1="226" x2="14674" y2= "226" />
  <line class="fil0 str0" x1="14674" y1="226" x2="14674" y2= "426" />
  <line class="fil0 str0" x1="14674" y1="426" x2="15190" y2= "426" />
  <line class="fil0 str0" x1="15190" y1="226" x2="15190" y2= "426" />
  <line class="fil0 str0" x1="15190" y1="226" x2="15706" y2= "226" />
  <line class="fil0 str0" x1="15706" y1="226" x2="15706" y2= "426" />
  <line class="fil0 str0" x1="15706" y1="426" x2="16222" y2= "426" />
  <line class="fil0 str0" x1="16222" y1="226" x2="16222" y2= "426" />
  <line class="fil0 str0" x1="16222" y1="226" x2="16737" y2= "226" />
  <line class="fil0 str0" x1="16737" y1="226" x2="16737" y2= "426" />
  <line class="fil0 str0" x1="16737" y1="426" x2="17253" y2= "426" />
  <line class="fil0 str0" x1="17253" y1="226" x2="17253" y2= "426" />
  <line class="fil0 str0" x1="17253" y1="226" x2="17769" y2= "226" />
  <line class="fil0 str0" x1="17769" y1="226" x2="17769" y2= "426" />
  <line class="fil0 str0" x1="17769" y1="426" x2="18084" y2= "426" />
  <line class="fil0 str0" x1="434" y1="4776" x2="434" y2= "4449" />
  <line class="fil0 str0" x1="434" y1="4449" x2="234" y2= "4449" />
  <line class="fil0 str0" x1="234" y1="4449" x2="234" y2= "3921" />
  <line class="fil0 str0" x1="434" y1="3921" x2="234" y2= "3921" />
  <line class="fil0 str0" x1="434" y1="3921" x2="434" y2= "3393" />
  <line class="fil0 str0" x1="434" y1="3393" x2="234" y2= "3393" />
  <line class="fil0 str0" x1="234" y1="3393" x2="234" y2= "2865" />
  <line class="fil0 str0" x1="434" y1="2865" x2="234" y2= "2865" />
  <line class="fil0 str0" x1="434" y1="2865" x2="434" y2= "2338" />
  <line class="fil0 str0" x1="434" y1="2338" x2="234" y2= "2338" />
  <line class="fil0 str0" x1="234" y1="2338" x2="234" y2= "1810" />
  <line class="fil0 str0" x1="434" y1="1810" x2="234" y2= "1810" />
  <line class="fil0 str0" x1="434" y1="1810" x2="434" y2= "1282" />
  <line class="fil0 str0" x1="434" y1="1282" x2="234" y2= "1282" />
  <line class="fil0 str0" x1="234" y1="1282" x2="234" y2= "754" />
  <line class="fil0 str0" x1="434" y1="754" x2="234" y2= "754" />
  <line class="fil0 str0" x1="434" y1="754" x2="434" y2= "426" />
  <line class="fil0 str0" x1="18084" y1="4776" x2="18084" y2= "4449" />
  <line class="fil0 str0" x1="18284" y1="4449" x2="18084" y2= "4449" />
  <line class="fil0 str0" x1="18284" y1="4449" x2="18284" y2= "3921" />
  <line class="fil0 str0" x1="18284" y1="3921" x2="18084" y2= "3921" />
  <line class="fil0 str0" x1="18084" y1="3921" x2="18084" y2= "3393" />
  <line class="fil0 str0" x1="18284" y1="3393" x2="18084" y2= "3393" />
  <line class="fil0 str0" x1="18284" y1="3393" x2="18284" y2= "2865" />
  <line class="fil0 str0" x1="18284" y1="2865" x2="18084" y2= "2865" />
  <line class="fil0 str0" x1="18084" y1="2865" x2="18084" y2= "2338" />
  <line class="fil0 str0" x1="18284" y1="2338" x2="18084" y2= "2338" />
  <line class="fil0 str0" x1="18284" y1="2338" x2="18284" y2= "1810" />
  <line class="fil0 str0" x1="18284" y1="1810" x2="18084" y2= "1810" />
  <line class="fil0 str0" x1="18084" y1="1810" x2="18084" y2= "1282" />
  <line class="fil0 str0" x1="18284" y1="1282" x2="18084" y2= "1282" />
  <line class="fil0 str0" x1="18284" y1="1282" x2="18284" y2= "754" />
  <line class="fil0 str0" x1="18284" y1="754" x2="18084" y2= "754" />
  <line class="fil0 str0" x1="18084" y1="754" x2="18084" y2= "426" />
  <ellipse class="fil1 str0" transform="matrix(2.37298E-014 -0.895989 0.926911 2.45488E-014 4193.68 1438.91)" rx="78" ry="76"/>
  <ellipse class="fil1 str0" transform="matrix(2.37298E-014 -0.895989 0.926911 2.45488E-014 6347.41 2445.41)" rx="78" ry="76"/>
  <ellipse class="fil1 str0" transform="matrix(2.71198E-014 -1.02399 1.05933 2.80558E-014 10077.4 1903.08)" rx="78" ry="76"/>
  <ellipse class="fil1 str0" transform="matrix(2.71198E-014 -1.02399 1.05933 2.80558E-014 10077.4 1298.08)" rx="78" ry="76"/>
  <line class="fil0 str0" x1="286" y1="11886" x2="802" y2= "11886" />
  <line class="fil0 str0" x1="802" y1="11686" x2="802" y2= "11886" />
  <line class="fil0 str0" x1="802" y1="11686" x2="1318" y2= "11686" />
  <line class="fil0 str0" x1="1318" y1="11686" x2="1318" y2= "11886" />
  <line class="fil0 str0" x1="1318" y1="11886" x2="1834" y2= "11886" />
  <line class="fil0 str0" x1="1834" y1="11686" x2="1834" y2= "11886" />
  <line class="fil0 str0" x1="1834" y1="11686" x2="2349" y2= "11686" />
  <line class="fil0 str0" x1="2349" y1="11686" x2="2349" y2= "11886" />
  <line class="fil0 str0" x1="2349" y1="11886" x2="2865" y2= "11886" />
  <line class="fil0 str0" x1="2865" y1="11686" x2="2865" y2= "11886" />
  <line class="fil0 str0" x1="2865" y1="11686" x2="3381" y2= "11686" />
  <line class="fil0 str0" x1="3381" y1="11686" x2="3381" y2= "11886" />
  <line class="fil0 str0" x1="3381" y1="11886" x2="3896" y2= "11886" />
  <line class="fil0 str0" x1="3896" y1="11686" x2="3896" y2= "11886" />
  <line class="fil0 str0" x1="3896" y1="11686" x2="4412" y2= "11686" />
  <line class="fil0 str0" x1="4412" y1="11686" x2="4412" y2= "11886" />
  <line class="fil0 str0" x1="4412" y1="11886" x2="4928" y2= "11886" />
  <line class="fil0 str0" x1="4928" y1="11686" x2="4928" y2= "11886" />
  <line class="fil0 str0" x1="4928" y1="11686" x2="5444" y2= "11686" />
  <line class="fil0 str0" x1="5444" y1="11686" x2="5444" y2= "11886" />
  <line class="fil0 str0" x1="5444" y1="11886" x2="5959" y2= "11886" />
  <line class="fil0 str0" x1="5959" y1="11686" x2="5959" y2= "11886" />
  <line class="fil0 str0" x1="5959" y1="11686" x2="6475" y2= "11686" />
  <line class="fil0 str0" x1="6475" y1="11686" x2="6475" y2= "11886" />
  <line class="fil0 str0" x1="6475" y1="11886" x2="6991" y2= "11886" />
  <line class="fil0 str0" x1="6991" y1="11686" x2="6991" y2= "11886" />
  <line class="fil0 str0" x1="6991" y1="11686" x2="7506" y2= "11686" />
  <line class="fil0 str0" x1="7506" y1="11686" x2="7506" y2= "11886" />
  <line class="fil0 str0" x1="7506" y1="11886" x2="8022" y2= "11886" />
  <line class="fil0 str0" x1="8022" y1="11686" x2="8022" y2= "11886" />
  <line class="fil0 str0" x1="8022" y1="11686" x2="8538" y2= "11686" />
  <line class="fil0 str0" x1="8538" y1="11686" x2="8538" y2= "11886" />
  <line class="fil0 str0" x1="8538" y1="11886" x2="9054" y2= "11886" />
  <line class="fil0 str0" x1="9054" y1="11686" x2="9054" y2= "11886" />
  <line class="fil0 str0" x1="9054" y1="11686" x2="9569" y2= "11686" />
  <line class="fil0 str0" x1="9569" y1="11686" x2="9569" y2= "11886" />
  <line class="fil0 str0" x1="9569" y1="11886" x2="10085" y2= "11886" />
  <line class="fil0 str0" x1="10085" y1="11686" x2="10085" y2= "11886" />
  <line class="fil0 str0" x1="10085" y1="11686" x2="10601" y2= "11686" />
  <line class="fil0 str0" x1="10601" y1="11686" x2="10601" y2= "11886" />
  <line class="fil0 str0" x1="10601" y1="11886" x2="11116" y2= "11886" />
  <line class="fil0 str0" x1="11116" y1="11686" x2="11116" y2= "11886" />
  <line class="fil0 str0" x1="11116" y1="11686" x2="11632" y2= "11686" />
  <line class="fil0 str0" x1="11632" y1="11686" x2="11632" y2= "11886" />
  <line class="fil0 str0" x1="11632" y1="11886" x2="12148" y2= "11886" />
  <line class="fil0 str0" x1="12148" y1="11686" x2="12148" y2= "11886" />
  <line class="fil0 str0" x1="12148" y1="11686" x2="12664" y2= "11686" />
  <line class="fil0 str0" x1="12664" y1="11686" x2="12664" y2= "11886" />
  <line class="fil0 str0" x1="12664" y1="11886" x2="13179" y2= "11886" />
  <line class="fil0 str0" x1="13179" y1="11686" x2="13179" y2= "11886" />
  <line class="fil0 str0" x1="13179" y1="11686" x2="13695" y2= "11686" />
  <line class="fil0 str0" x1="13695" y1="11686" x2="13695" y2= "11886" />
  <line class="fil0 str0" x1="13695" y1="11886" x2="14211" y2= "11886" />
  <line class="fil0 str0" x1="14211" y1="11686" x2="14211" y2= "11886" />
  <line class="fil0 str0" x1="14211" y1="11686" x2="14726" y2= "11686" />
  <line class="fil0 str0" x1="14726" y1="11686" x2="14726" y2= "11886" />
  <line class="fil0 str0" x1="14726" y1="11886" x2="15242" y2= "11886" />
  <line class="fil0 str0" x1="15242" y1="11686" x2="15242" y2= "11886" />
  <line class="fil0 str0" x1="15242" y1="11686" x2="15758" y2= "11686" />
  <line class="fil0 str0" x1="15758" y1="11686" x2="15758" y2= "11886" />
  <line class="fil0 str0" x1="15758" y1="11886" x2="16274" y2= "11886" />
  <line class="fil0 str0" x1="16274" y1="11686" x2="16274" y2= "11886" />
  <line class="fil0 str0" x1="16274" y1="11686" x2="16789" y2= "11686" />
  <line class="fil0 str0" x1="16789" y1="11686" x2="16789" y2= "11886" />
  <line class="fil0 str0" x1="16789" y1="11886" x2="17305" y2= "11886" />
  <line class="fil0 str0" x1="17305" y1="11686" x2="17305" y2= "11886" />
  <line class="fil0 str0" x1="17305" y1="11686" x2="17821" y2= "11686" />
  <line class="fil0 str0" x1="17821" y1="11686" x2="17821" y2= "11886" />
  <line class="fil0 str0" x1="17821" y1="11886" x2="18136" y2= "11886" />
  <line class="fil0 str0" x1="286" y1="5236" x2="802" y2= "5236" />
  <line class="fil0 str0" x1="802" y1="5236" x2="802" y2= "5636" />
  <line class="fil0 str0" x1="802" y1="5636" x2="1318" y2= "5636" />
  <line class="fil0 str0" x1="1318" y1="5236" x2="1318" y2= "5636" />
  <line class="fil0 str0" x1="1318" y1="5236" x2="1834" y2= "5236" />
  <line class="fil0 str0" x1="1834" y1="5236" x2="1834" y2= "5636" />
  <line class="fil0 str0" x1="1834" y1="5636" x2="2349" y2= "5636" />
  <line class="fil0 str0" x1="2349" y1="5236" x2="2349" y2= "5636" />
  <line class="fil0 str0" x1="2349" y1="5236" x2="2865" y2= "5236" />
  <line class="fil0 str0" x1="2865" y1="5236" x2="2865" y2= "5636" />
  <line class="fil0 str0" x1="2865" y1="5636" x2="3381" y2= "5636" />
  <line class="fil0 str0" x1="3381" y1="5236" x2="3381" y2= "5636" />
  <line class="fil0 str0" x1="3381" y1="5236" x2="3896" y2= "5236" />
  <line class="fil0 str0" x1="3896" y1="5236" x2="3896" y2= "5636" />
  <line class="fil0 str0" x1="3896" y1="5636" x2="4412" y2= "5636" />
  <line class="fil0 str0" x1="4412" y1="5236" x2="4412" y2= "5636" />
  <line class="fil0 str0" x1="4412" y1="5236" x2="4928" y2= "5236" />
  <line class="fil0 str0" x1="4928" y1="5236" x2="4928" y2= "5636" />
  <line class="fil0 str0" x1="4928" y1="5636" x2="5444" y2= "5636" />
  <line class="fil0 str0" x1="5444" y1="5236" x2="5444" y2= "5636" />
  <line class="fil0 str0" x1="5444" y1="5236" x2="5959" y2= "5236" />
  <line class="fil0 str0" x1="5959" y1="5236" x2="5959" y2= "5636" />
  <line class="fil0 str0" x1="5959" y1="5636" x2="6475" y2= "5636" />
  <line class="fil0 str0" x1="6475" y1="5236" x2="6475" y2= "5636" />
  <line class="fil0 str0" x1="6475" y1="5236" x2="6991" y2= "5236" />
  <line class="fil0 str0" x1="6991" y1="5236" x2="6991" y2= "5636" />
  <line class="fil0 str0" x1="6991" y1="5636" x2="7506" y2= "5636" />
  <line class="fil0 str0" x1="7506" y1="5236" x2="7506" y2= "5636" />
  <line class="fil0 str0" x1="7506" y1="5236" x2="8022" y2= "5236" />
  <line class="fil0 str0" x1="8022" y1="5236" x2="8022" y2= "5636" />
  <line class="fil0 str0" x1="8022" y1="5636" x2="8538" y2= "5636" />
  <line class="fil0 str0" x1="8538" y1="5236" x2="8538" y2= "5636" />
  <line class="fil0 str0" x1="8538" y1="5236" x2="9054" y2= "5236" />
  <line class="fil0 str0" x1="9054" y1="5236" x2="9054" y2= "5636" />
  <line class="fil0 str0" x1="9054" y1="5636" x2="9569" y2= "5636" />
  <line class="fil0 str0" x1="9569" y1="5236" x2="9569" y2= "5636" />
  <line class="fil0 str0" x1="9569" y1="5236" x2="10085" y2= "5236" />
  <line class="fil0 str0" x1="10085" y1="5236" x2="10085" y2= "5636" />
  <line class="fil0 str0" x1="10085" y1="5636" x2="10601" y2= "5636" />
  <line class="fil0 str0" x1="10601" y1="5236" x2="10601" y2= "5636" />
  <line class="fil0 str0" x1="10601" y1="5236" x2="11116" y2= "5236" />
  <line class="fil0 str0" x1="11116" y1="5236" x2="11116" y2= "5636" />
  <line class="fil0 str0" x1="11116" y1="5636" x2="11632" y2= "5636" />
  <line class="fil0 str0" x1="11632" y1="5236" x2="11632" y2= "5636" />
  <line class="fil0 str0" x1="11632" y1="5236" x2="12148" y2= "5236" />
  <line class="fil0 str0" x1="12148" y1="5236" x2="12148" y2= "5636" />
  <line class="fil0 str0" x1="12148" y1="5636" x2="12664" y2= "5636" />
  <line class="fil0 str0" x1="12664" y1="5236" x2="12664" y2= "5636" />
  <line class="fil0 str0" x1="12664" y1="5236" x2="13179" y2= "5236" />
  <line class="fil0 str0" x1="13179" y1="5236" x2="13179" y2= "5636" />
  <line class="fil0 str0" x1="13179" y1="5636" x2="13695" y2= "5636" />
  <line class="fil0 str0" x1="13695" y1="5236" x2="13695" y2= "5636" />
  <line class="fil0 str0" x1="13695" y1="5236" x2="14211" y2= "5236" />
  <line class="fil0 str0" x1="14211" y1="5236" x2="14211" y2= "5636" />
  <line class="fil0 str0" x1="14211" y1="5636" x2="14726" y2= "5636" />
  <line class="fil0 str0" x1="14726" y1="5236" x2="14726" y2= "5636" />
  <line class="fil0 str0" x1="14726" y1="5236" x2="15242" y2= "5236" />
  <line class="fil0 str0" x1="15242" y1="5236" x2="15242" y2= "5636" />
  <line class="fil0 str0" x1="15242" y1="5636" x2="15758" y2= "5636" />
  <line class="fil0 str0" x1="15758" y1="5236" x2="15758" y2= "5636" />
  <line class="fil0 str0" x1="15758" y1="5236" x2="16274" y2= "5236" />
  <line class="fil0 str0" x1="16274" y1="5236" x2="16274" y2= "5636" />
  <line class="fil0 str0" x1="16274" y1="5636" x2="16789" y2= "5636" />
  <line class="fil0 str0" x1="16789" y1="5236" x2="16789" y2= "5636" />
  <line class="fil0 str0" x1="16789" y1="5236" x2="17305" y2= "5236" />
  <line class="fil0 str0" x1="17305" y1="5236" x2="17305" y2= "5636" />
  <line class="fil0 str0" x1="17305" y1="5636" x2="17821" y2= "5636" />
  <line class="fil0 str0" x1="17821" y1="5236" x2="17821" y2= "5636" />
  <line class="fil0 str0" x1="17821" y1="5236" x2="18136" y2= "5236" />
  <line class="fil0 str0" x1="286" y1="11886" x2="286" y2= "11375" />
  <line class="fil0 str0" x1="486" y1="11375" x2="286" y2= "11375" />
  <line class="fil0 str0" x1="486" y1="11375" x2="486" y2= "10863" />
  <line class="fil0 str0" x1="486" y1="10863" x2="286" y2= "10863" />
  <line class="fil0 str0" x1="286" y1="10863" x2="286" y2= "10352" />
  <line class="fil0 str0" x1="486" y1="10352" x2="286" y2= "10352" />
  <line class="fil0 str0" x1="486" y1="10352" x2="486" y2= "9840" />
  <line class="fil0 str0" x1="486" y1="9840" x2="286" y2= "9840" />
  <line class="fil0 str0" x1="286" y1="9840" x2="286" y2= "9329" />
  <line class="fil0 str0" x1="486" y1="9329" x2="286" y2= "9329" />
  <line class="fil0 str0" x1="486" y1="9329" x2="486" y2= "8817" />
  <line class="fil0 str0" x1="486" y1="8817" x2="286" y2= "8817" />
  <line class="fil0 str0" x1="286" y1="8817" x2="286" y2= "8306" />
  <line class="fil0 str0" x1="486" y1="8306" x2="286" y2= "8306" />
  <line class="fil0 str0" x1="486" y1="8306" x2="486" y2= "7794" />
  <line class="fil0 str0" x1="486" y1="7794" x2="286" y2= "7794" />
  <line class="fil0 str0" x1="286" y1="7794" x2="286" y2= "7282" />
  <line class="fil0 str0" x1="486" y1="7282" x2="286" y2= "7282" />
  <line class="fil0 str0" x1="486" y1="7282" x2="486" y2= "6771" />
  <line class="fil0 str0" x1="486" y1="6771" x2="286" y2= "6771" />
  <line class="fil0 str0" x1="286" y1="6771" x2="286" y2= "6259" />
  <line class="fil0 str0" x1="486" y1="6259" x2="286" y2= "6259" />
  <line class="fil0 str0" x1="486" y1="6259" x2="486" y2= "5748" />
  <line class="fil0 str0" x1="486" y1="5748" x2="286" y2= "5748" />
  <line class="fil0 str0" x1="286" y1="5748" x2="286" y2= "5236" />
  <line class="fil0 str0" x1="18136" y1="11886" x2="18136" y2= "11375" />
  <line class="fil0 str0" x1="18336" y1="11375" x2="18136" y2= "11375" />
  <line class="fil0 str0" x1="18336" y1="11375" x2="18336" y2= "10863" />
  <line class="fil0 str0" x1="18336" y1="10863" x2="18136" y2= "10863" />
  <line class="fil0 str0" x1="18136" y1="10863" x2="18136" y2= "10352" />
  <line class="fil0 str0" x1="18336" y1="10352" x2="18136" y2= "10352" />
  <line class="fil0 str0" x1="18336" y1="10352" x2="18336" y2= "9840" />
  <line class="fil0 str0" x1="18336" y1="9840" x2="18136" y2= "9840" />
  <line class="fil0 str0" x1="18136" y1="9840" x2="18136" y2= "9329" />
  <line class="fil0 str0" x1="18336" y1="9329" x2="18136" y2= "9329" />
  <line class="fil0 str0" x1="18336" y1="9329" x2="18336" y2= "8817" />
  <line class="fil0 str0" x1="18336" y1="8817" x2="18136" y2= "8817" />
  <line class="fil0 str0" x1="18136" y1="8817" x2="18136" y2= "8306" />
  <line class="fil0 str0" x1="18336" y1="8306" x2="18136" y2= "8306" />
  <line class="fil0 str0" x1="18336" y1="8306" x2="18336" y2= "7794" />
  <line class="fil0 str0" x1="18336" y1="7794" x2="18136" y2= "7794" />
  <line class="fil0 str0" x1="18136" y1="7794" x2="18136" y2= "7282" />
  <line class="fil0 str0" x1="18336" y1="7282" x2="18136" y2= "7282" />
  <line class="fil0 str0" x1="18336" y1="7282" x2="18336" y2= "6771" />
  <line class="fil0 str0" x1="18336" y1="6771" x2="18136" y2= "6771" />
  <line class="fil0 str0" x1="18136" y1="6771" x2="18136" y2= "6259" />
  <line class="fil0 str0" x1="18336" y1="6259" x2="18136" y2= "6259" />
  <line class="fil0 str0" x1="18336" y1="6259" x2="18336" y2= "5748" />
  <line class="fil0 str0" x1="18336" y1="5748" x2="18136" y2= "5748" />
  <line class="fil0 str0" x1="18136" y1="5748" x2="18136" y2= "5236" />
  <rect class="fil1 str0" x="2217" y="6557" width="14000" height="4150"/>
  <circle class="fil1 str0" cx="5204" cy="6341" r="30"/>
  <circle class="fil1 str0" cx="12785" cy="6329" r="30"/>
  <circle class="fil1 str0" cx="8968" cy="6329" r="30"/>
  <circle class="fil1 str0" cx="5204" cy="10946" r="30"/>
  <circle class="fil1 str0" cx="12785" cy="10934" r="30"/>
  <circle class="fil1 str0" cx="8968" cy="10934" r="30"/>
  <circle class="fil1 str0" transform="matrix(4.86658E-015 0.183752 0.183752 -4.86658E-015 16458.5 9984.67)" r="163"/>
  <circle class="fil1 str0" transform="matrix(4.86658E-015 0.183752 0.183752 -4.86658E-015 16458.3 7487.53)" r="163"/>
  <circle class="fil1 str0" transform="matrix(4.86658E-015 0.183752 0.183752 -4.86658E-015 1982.52 9984.88)" r="163"/>
  <circle class="fil1 str0" transform="matrix(4.86658E-015 0.183752 0.183752 -4.86658E-015 1982.38 7487.74)" r="163"/>
  <circle class="fil1 str0" transform="matrix(-2.43329E-014 0.306253 -0.306253 -2.43329E-014 18868.2 3861.01)" r="163"/>
  <circle class="fil1 str0" transform="matrix(-2.43329E-014 0.306253 -0.306253 -2.43329E-014 18856.3 11442.1)" r="163"/>
  <circle class="fil1 str0" transform="matrix(-2.43329E-014 0.306253 -0.306253 -2.43329E-014 18856.5 7624.99)" r="163"/>
  <circle class="fil1 str0" transform="matrix(-2.43329E-014 0.306253 -0.306253 -2.43329E-014 23472.9 3861.43)" r="163"/>
  <circle class="fil1 str0" transform="matrix(-2.91995E-014 0.367503 -0.367503 -2.91995E-014 23461 11442.5)" r="163"/>
  <circle class="fil1 str0" transform="matrix(-2.91995E-014 0.367503 -0.367503 -2.91995E-014 23461.1 7625.41)" r="163"/>
  <circle class="fil1 str0" cx="22512" cy="15116" r="60"/>
  <circle class="fil1 str0" cx="20015" cy="15116" r="60"/>
  <circle class="fil1 str0" cx="22512" cy="640" r="50"/>
  <circle class="fil1 str0" cx="20015" cy="640" r="60"/>
  <rect class="fil1 str0" transform="matrix(-7.45679E-014 0.938508 -1.10705 -8.79593E-014 23834 274.166)" width="16196" height="4833"/>
  <path class="fil1 str0" d="M28415 3400c-239,544 -676,980 -1220,1220l-1910 0c-544,-239 -981,-676 -1220,-1221l0 -1909c239,-544 676,-981 1220,-1220l1910 0c544,239 980,676 1220,1219l0 1911z"/>
  <circle class="fil1 str0" transform="matrix(7.62784E-014 0.960036 -0.960036 7.62784E-014 27749.6 3934.87)" r="78"/>
  <circle class="fil1 str0" transform="matrix(7.62784E-014 0.960036 -0.960036 7.62784E-014 27749.6 914.87)" r="78"/>
  <circle class="fil1 str0" transform="matrix(7.62784E-014 0.960036 -0.960036 7.62784E-014 24729.6 3934.87)" r="78"/>
  <circle class="fil1 str0" transform="matrix(7.62784E-014 0.960036 -0.960036 7.62784E-014 24729.6 914.87)" r="78"/>
  <g id="_210267864">
   <path class="fil1 str0" d="M27693 1222c595,708 592,1749 -10,2454l-142 -142c525,-626 528,-1540 10,-2170l142 -142zm-352 -72c-630,-539 -1561,-543 -2195,-11l-142 -142c713,-609 1770,-606 2479,11l-142 142zm130 2738c-705,603 -1746,606 -2454,11l142 -142c630,518 1545,515 2171,-11l142 142zm-2668 -199c-617,-709 -620,-1766 -10,-2479l142 142c-532,634 -529,1565 10,2195l-142 142z"/>
   <path class="fil1 str0" d="M27409 1507c441,550 438,1339 -10,1886l-142 -142c371,-467 374,-1130 10,-1601l142 -142zm-352 -72c-472,-384 -1151,-388 -1626,-11l-142 -142c555,-454 1360,-451 1911,11l-142 142zm130 2170c-547,448 -1336,452 -1886,11l142 -142c471,364 1134,361 1602,-10l142 142zm-2101 -199c-462,-551 -465,-1357 -10,-1912l142 142c-378,476 -375,1155 10,1627l-142 142z"/>
   <path class="fil1 str0" d="M27124 1792c288,391 285,928 -10,1316l-143 -143c218,-307 221,-719 9,-1029l143 -143zm-352 -73c-312,-231 -740,-235 -1056,-10l-143 -143c396,-301 949,-297 1342,10l-143 143zm130 1600c-387,295 -925,298 -1316,10l143 -143c310,212 723,209 1030,-10l143 143zm-1532 -199c-308,-393 -311,-946 -10,-1342l143 143c-225,316 -222,744 9,1057l-143 143z"/>
   <path class="fil1 str0" d="M26836 2080c138,227 135,516 -9,740l-146 -146c73,-139 75,-306 7,-447l147 -147zm-352 -72c-147,-83 -328,-86 -477,-8l-146 -146c234,-150 537,-147 768,9l-145 145zm132 1025c-225,144 -514,147 -741,9l147 -147c141,68 308,65 448,-8l146 146zm-958 -198c-156,-231 -159,-535 -9,-769l146 146c-78,150 -76,330 8,478l-145 145z"/>
   <circle class="fil1 str0" transform="matrix(0.105244 0.105244 -0.105244 0.105244 26237.2 2443.19)" r="2016"/>
  </g>
  <path class="fil1 str0" d="M28515 7925c-239,544 -676,980 -1220,1220l-1910 0c-544,-239 -981,-676 -1220,-1221l0 -1909c239,-544 676,-981 1220,-1220l1910 0c544,239 980,676 1220,1219l0 1911z"/>
  <circle class="fil1 str0" transform="matrix(7.62784E-014 0.960036 -0.960036 7.62784E-014 27849.2 8459.6)" r="78"/>
  <circle class="fil1 str0" transform="matrix(7.62784E-014 0.960036 -0.960036 7.62784E-014 27849.2 5439.6)" r="78"/>
  <circle class="fil1 str0" transform="matrix(7.62784E-014 0.960036 -0.960036 7.62784E-014 24829.2 8459.6)" r="78"/>
  <circle class="fil1 str0" transform="matrix(7.62784E-014 0.960036 -0.960036 7.62784E-014 24829.2 5439.6)" r="78"/>
  <g id="_210270000">
   <path class="fil1 str0" d="M27793 5747c595,708 592,1749 -10,2454l-142 -142c525,-626 528,-1540 10,-2170l142 -142zm-352 -72c-630,-539 -1561,-543 -2195,-11l-142 -142c713,-609 1770,-606 2479,11l-142 142zm130 2738c-705,603 -1746,606 -2454,11l142 -142c630,518 1545,515 2171,-11l142 142zm-2668 -199c-617,-709 -620,-1766 -10,-2479l142 142c-532,634 -529,1565 10,2195l-142 142z"/>
   <path class="fil1 str0" d="M27509 6031c441,550 438,1339 -10,1886l-142 -142c371,-467 374,-1130 10,-1601l142 -142zm-352 -72c-472,-384 -1151,-388 -1626,-11l-142 -142c555,-454 1360,-451 1911,11l-142 142zm130 2170c-547,448 -1336,452 -1886,11l142 -142c471,364 1134,361 1602,-10l142 142zm-2101 -199c-462,-551 -465,-1357 -10,-1912l142 142c-378,476 -375,1155 10,1627l-142 142z"/>
   <path class="fil1 str0" d="M27223 6317c288,391 285,928 -10,1316l-143 -143c218,-307 221,-719 9,-1029l143 -143zm-352 -73c-312,-231 -740,-235 -1056,-10l-143 -143c396,-301 949,-297 1342,10l-143 143zm130 1600c-387,295 -925,298 -1316,10l143 -143c310,212 723,209 1030,-10l143 143zm-1532 -199c-308,-393 -311,-946 -10,-1342l143 143c-225,316 -222,744 9,1057l-143 143z"/>
   <path class="fil1 str0" d="M26935 6605c138,227 135,516 -9,740l-146 -146c73,-139 75,-306 7,-447l147 -147zm-352 -72c-147,-83 -328,-86 -477,-8l-146 -146c234,-150 537,-147 768,9l-145 145zm132 1025c-225,144 -514,147 -741,9l147 -147c141,68 308,65 448,-8l146 146zm-958 -198c-156,-231 -159,-535 -9,-769l146 146c-78,150 -76,330 8,478l-145 145z"/>
   <circle class="fil1 str0" transform="matrix(0.105244 0.105244 -0.105244 0.105244 26336.8 6967.93)" r="2016"/>
  </g>
 </g>
</svg>
