<?xml version="1.0" encoding="utf-8"?>
<!-- Generator: Adobe Illustrator 17.1.0, SVG Export Plug-In . SVG Version: 6.00 Build 0)  -->
<!DOCTYPE svg PUBLIC "-//W3C//DTD SVG 1.1//EN" "http://www.w3.org/Graphics/SVG/1.1/DTD/svg11.dtd">
<svg version="1.1" id="Layer_1" xmlns="http://www.w3.org/2000/svg" xmlns:xlink="http://www.w3.org/1999/xlink" x="0px" y="0px"
	 viewBox="0 0 2304 1296" enable-background="new 0 0 2304 1296" xml:space="preserve">
<g id="Layer_x0020_1">
	<line fill="none" stroke="#FF0000" stroke-width="3" x1="31.2" y1="343.9" x2="54" y2="343.9"/>
	<line fill="none" stroke="#FF0000" stroke-width="3" x1="54" y1="343.9" x2="54" y2="358.3"/>
	<line fill="none" stroke="#FF0000" stroke-width="3" x1="54" y1="358.3" x2="91.2" y2="358.3"/>
	<line fill="none" stroke="#FF0000" stroke-width="3" x1="91.2" y1="343.9" x2="91.2" y2="358.3"/>
	<line fill="none" stroke="#FF0000" stroke-width="3" x1="91.2" y1="343.9" x2="128.3" y2="343.9"/>
	<line fill="none" stroke="#FF0000" stroke-width="3" x1="128.3" y1="343.9" x2="128.3" y2="358.3"/>
	<line fill="none" stroke="#FF0000" stroke-width="3" x1="128.3" y1="358.3" x2="165.4" y2="358.3"/>
	<line fill="none" stroke="#FF0000" stroke-width="3" x1="165.4" y1="343.9" x2="165.4" y2="358.3"/>
	<line fill="none" stroke="#FF0000" stroke-width="3" x1="165.4" y1="343.9" x2="202.5" y2="343.9"/>
	<line fill="none" stroke="#FF0000" stroke-width="3" x1="202.5" y1="343.9" x2="202.5" y2="358.3"/>
	<line fill="none" stroke="#FF0000" stroke-width="3" x1="202.5" y1="358.3" x2="239.7" y2="358.3"/>
	<line fill="none" stroke="#FF0000" stroke-width="3" x1="239.7" y1="343.9" x2="239.7" y2="358.3"/>
	<line fill="none" stroke="#FF0000" stroke-width="3" x1="239.7" y1="343.9" x2="276.8" y2="343.9"/>
	<line fill="none" stroke="#FF0000" stroke-width="3" x1="276.8" y1="343.9" x2="276.8" y2="358.3"/>
	<line fill="none" stroke="#FF0000" stroke-width="3" x1="276.8" y1="358.3" x2="313.9" y2="358.3"/>
	<line fill="none" stroke="#FF0000" stroke-width="3" x1="313.9" y1="343.9" x2="313.9" y2="358.3"/>
	<line fill="none" stroke="#FF0000" stroke-width="3" x1="313.9" y1="343.9" x2="351.1" y2="343.9"/>
	<line fill="none" stroke="#FF0000" stroke-width="3" x1="351.1" y1="343.9" x2="351.1" y2="358.3"/>
	<line fill="none" stroke="#FF0000" stroke-width="3" x1="351.1" y1="358.3" x2="388.2" y2="358.3"/>
	<line fill="none" stroke="#FF0000" stroke-width="3" x1="388.2" y1="343.9" x2="388.2" y2="358.3"/>
	<line fill="none" stroke="#FF0000" stroke-width="3" x1="388.2" y1="343.9" x2="425.3" y2="343.9"/>
	<line fill="none" stroke="#FF0000" stroke-width="3" x1="425.3" y1="343.9" x2="425.3" y2="358.3"/>
	<line fill="none" stroke="#FF0000" stroke-width="3" x1="425.3" y1="358.3" x2="462.5" y2="358.3"/>
	<line fill="none" stroke="#FF0000" stroke-width="3" x1="462.5" y1="343.9" x2="462.5" y2="358.3"/>
	<line fill="none" stroke="#FF0000" stroke-width="3" x1="462.5" y1="343.9" x2="499.6" y2="343.9"/>
	<line fill="none" stroke="#FF0000" stroke-width="3" x1="499.6" y1="343.9" x2="499.6" y2="358.3"/>
	<line fill="none" stroke="#FF0000" stroke-width="3" x1="499.6" y1="358.3" x2="536.7" y2="358.3"/>
	<line fill="none" stroke="#FF0000" stroke-width="3" x1="536.7" y1="343.9" x2="536.7" y2="358.3"/>
	<line fill="none" stroke="#FF0000" stroke-width="3" x1="536.7" y1="343.9" x2="573.8" y2="343.9"/>
	<line fill="none" stroke="#FF0000" stroke-width="3" x1="573.8" y1="343.9" x2="573.8" y2="358.3"/>
	<line fill="none" stroke="#FF0000" stroke-width="3" x1="573.8" y1="358.3" x2="611" y2="358.3"/>
	<line fill="none" stroke="#FF0000" stroke-width="3" x1="611" y1="343.9" x2="611" y2="358.3"/>
	<line fill="none" stroke="#FF0000" stroke-width="3" x1="611" y1="343.9" x2="648.1" y2="343.9"/>
	<line fill="none" stroke="#FF0000" stroke-width="3" x1="648.1" y1="343.9" x2="648.1" y2="358.3"/>
	<line fill="none" stroke="#FF0000" stroke-width="3" x1="648.1" y1="358.3" x2="685.2" y2="358.3"/>
	<line fill="none" stroke="#FF0000" stroke-width="3" x1="685.2" y1="343.9" x2="685.2" y2="358.3"/>
	<line fill="none" stroke="#FF0000" stroke-width="3" x1="685.2" y1="343.9" x2="722.4" y2="343.9"/>
	<line fill="none" stroke="#FF0000" stroke-width="3" x1="722.4" y1="343.9" x2="722.4" y2="358.3"/>
	<line fill="none" stroke="#FF0000" stroke-width="3" x1="722.4" y1="358.3" x2="759.5" y2="358.3"/>
	<line fill="none" stroke="#FF0000" stroke-width="3" x1="759.5" y1="343.9" x2="759.5" y2="358.3"/>
	<line fill="none" stroke="#FF0000" stroke-width="3" x1="759.5" y1="343.9" x2="796.6" y2="343.9"/>
	<line fill="none" stroke="#FF0000" stroke-width="3" x1="796.6" y1="343.9" x2="796.6" y2="358.3"/>
	<line fill="none" stroke="#FF0000" stroke-width="3" x1="796.6" y1="358.3" x2="833.8" y2="358.3"/>
	<line fill="none" stroke="#FF0000" stroke-width="3" x1="833.8" y1="343.9" x2="833.8" y2="358.3"/>
	<line fill="none" stroke="#FF0000" stroke-width="3" x1="833.8" y1="343.9" x2="870.9" y2="343.9"/>
	<line fill="none" stroke="#FF0000" stroke-width="3" x1="870.9" y1="343.9" x2="870.9" y2="358.3"/>
	<line fill="none" stroke="#FF0000" stroke-width="3" x1="870.9" y1="358.3" x2="908.1" y2="358.3"/>
	<line fill="none" stroke="#FF0000" stroke-width="3" x1="908.1" y1="343.9" x2="908.1" y2="358.3"/>
	<line fill="none" stroke="#FF0000" stroke-width="3" x1="908.1" y1="343.9" x2="945.1" y2="343.9"/>
	<line fill="none" stroke="#FF0000" stroke-width="3" x1="945.1" y1="343.9" x2="945.1" y2="358.3"/>
	<line fill="none" stroke="#FF0000" stroke-width="3" x1="945.1" y1="358.3" x2="982.3" y2="358.3"/>
	<line fill="none" stroke="#FF0000" stroke-width="3" x1="982.3" y1="343.9" x2="982.3" y2="358.3"/>
	<line fill="none" stroke="#FF0000" stroke-width="3" x1="982.3" y1="343.9" x2="1019.4" y2="343.9"/>
	<line fill="none" stroke="#FF0000" stroke-width="3" x1="1019.4" y1="343.9" x2="1019.4" y2="358.3"/>
	<line fill="none" stroke="#FF0000" stroke-width="3" x1="1019.4" y1="358.3" x2="1056.5" y2="358.3"/>
	<line fill="none" stroke="#FF0000" stroke-width="3" x1="1056.5" y1="343.9" x2="1056.5" y2="358.3"/>
	<line fill="none" stroke="#FF0000" stroke-width="3" x1="1056.5" y1="343.9" x2="1093.7" y2="343.9"/>
	<line fill="none" stroke="#FF0000" stroke-width="3" x1="1093.7" y1="343.9" x2="1093.7" y2="358.3"/>
	<line fill="none" stroke="#FF0000" stroke-width="3" x1="1093.7" y1="358.3" x2="1130.8" y2="358.3"/>
	<line fill="none" stroke="#FF0000" stroke-width="3" x1="1130.8" y1="343.9" x2="1130.8" y2="358.3"/>
	<line fill="none" stroke="#FF0000" stroke-width="3" x1="1130.8" y1="343.9" x2="1168" y2="343.9"/>
	<line fill="none" stroke="#FF0000" stroke-width="3" x1="1168" y1="343.9" x2="1168" y2="358.3"/>
	<line fill="none" stroke="#FF0000" stroke-width="3" x1="1168" y1="358.3" x2="1205.1" y2="358.3"/>
	<line fill="none" stroke="#FF0000" stroke-width="3" x1="1205.1" y1="343.9" x2="1205.1" y2="358.3"/>
	<line fill="none" stroke="#FF0000" stroke-width="3" x1="1205.1" y1="343.9" x2="1242.2" y2="343.9"/>
	<line fill="none" stroke="#FF0000" stroke-width="3" x1="1242.2" y1="343.9" x2="1242.2" y2="358.3"/>
	<line fill="none" stroke="#FF0000" stroke-width="3" x1="1242.2" y1="358.3" x2="1279.4" y2="358.3"/>
	<line fill="none" stroke="#FF0000" stroke-width="3" x1="1279.4" y1="343.9" x2="1279.4" y2="358.3"/>
	<line fill="none" stroke="#FF0000" stroke-width="3" x1="1279.4" y1="343.9" x2="1302" y2="343.9"/>
	<line fill="none" stroke="#FF0000" stroke-width="3" x1="31.2" y1="30.7" x2="54" y2="30.7"/>
	<line fill="none" stroke="#FF0000" stroke-width="3" x1="54" y1="16.3" x2="54" y2="30.7"/>
	<line fill="none" stroke="#FF0000" stroke-width="3" x1="54" y1="16.3" x2="91.2" y2="16.3"/>
	<line fill="none" stroke="#FF0000" stroke-width="3" x1="91.2" y1="16.3" x2="91.2" y2="30.7"/>
	<line fill="none" stroke="#FF0000" stroke-width="3" x1="91.2" y1="30.7" x2="128.3" y2="30.7"/>
	<line fill="none" stroke="#FF0000" stroke-width="3" x1="128.3" y1="16.3" x2="128.3" y2="30.7"/>
	<line fill="none" stroke="#FF0000" stroke-width="3" x1="128.3" y1="16.3" x2="165.4" y2="16.3"/>
	<line fill="none" stroke="#FF0000" stroke-width="3" x1="165.4" y1="16.3" x2="165.4" y2="30.7"/>
	<line fill="none" stroke="#FF0000" stroke-width="3" x1="165.4" y1="30.7" x2="202.5" y2="30.7"/>
	<line fill="none" stroke="#FF0000" stroke-width="3" x1="202.5" y1="16.3" x2="202.5" y2="30.7"/>
	<line fill="none" stroke="#FF0000" stroke-width="3" x1="202.5" y1="16.3" x2="239.7" y2="16.3"/>
	<line fill="none" stroke="#FF0000" stroke-width="3" x1="239.7" y1="16.3" x2="239.7" y2="30.7"/>
	<line fill="none" stroke="#FF0000" stroke-width="3" x1="239.7" y1="30.7" x2="276.8" y2="30.7"/>
	<line fill="none" stroke="#FF0000" stroke-width="3" x1="276.8" y1="16.3" x2="276.8" y2="30.7"/>
	<line fill="none" stroke="#FF0000" stroke-width="3" x1="276.8" y1="16.3" x2="313.9" y2="16.3"/>
	<line fill="none" stroke="#FF0000" stroke-width="3" x1="313.9" y1="16.3" x2="313.9" y2="30.7"/>
	<line fill="none" stroke="#FF0000" stroke-width="3" x1="313.9" y1="30.7" x2="351.1" y2="30.7"/>
	<line fill="none" stroke="#FF0000" stroke-width="3" x1="351.1" y1="16.3" x2="351.1" y2="30.7"/>
	<line fill="none" stroke="#FF0000" stroke-width="3" x1="351.1" y1="16.3" x2="388.2" y2="16.3"/>
	<line fill="none" stroke="#FF0000" stroke-width="3" x1="388.2" y1="16.3" x2="388.2" y2="30.7"/>
	<line fill="none" stroke="#FF0000" stroke-width="3" x1="388.2" y1="30.7" x2="425.3" y2="30.7"/>
	<line fill="none" stroke="#FF0000" stroke-width="3" x1="425.3" y1="16.3" x2="425.3" y2="30.7"/>
	<line fill="none" stroke="#FF0000" stroke-width="3" x1="425.3" y1="16.3" x2="462.5" y2="16.3"/>
	<line fill="none" stroke="#FF0000" stroke-width="3" x1="462.5" y1="16.3" x2="462.5" y2="30.7"/>
	<line fill="none" stroke="#FF0000" stroke-width="3" x1="462.5" y1="30.7" x2="499.6" y2="30.7"/>
	<line fill="none" stroke="#FF0000" stroke-width="3" x1="499.6" y1="16.3" x2="499.6" y2="30.7"/>
	<line fill="none" stroke="#FF0000" stroke-width="3" x1="499.6" y1="16.3" x2="536.7" y2="16.3"/>
	<line fill="none" stroke="#FF0000" stroke-width="3" x1="536.7" y1="16.3" x2="536.7" y2="30.7"/>
	<line fill="none" stroke="#FF0000" stroke-width="3" x1="536.7" y1="30.7" x2="573.8" y2="30.7"/>
	<line fill="none" stroke="#FF0000" stroke-width="3" x1="573.8" y1="16.3" x2="573.8" y2="30.7"/>
	<line fill="none" stroke="#FF0000" stroke-width="3" x1="573.8" y1="16.3" x2="611" y2="16.3"/>
	<line fill="none" stroke="#FF0000" stroke-width="3" x1="611" y1="16.3" x2="611" y2="30.7"/>
	<line fill="none" stroke="#FF0000" stroke-width="3" x1="611" y1="30.7" x2="648.1" y2="30.7"/>
	<line fill="none" stroke="#FF0000" stroke-width="3" x1="648.1" y1="16.3" x2="648.1" y2="30.7"/>
	<line fill="none" stroke="#FF0000" stroke-width="3" x1="648.1" y1="16.3" x2="685.2" y2="16.3"/>
	<line fill="none" stroke="#FF0000" stroke-width="3" x1="685.2" y1="16.3" x2="685.2" y2="30.7"/>
	<line fill="none" stroke="#FF0000" stroke-width="3" x1="685.2" y1="30.7" x2="722.4" y2="30.7"/>
	<line fill="none" stroke="#FF0000" stroke-width="3" x1="722.4" y1="16.3" x2="722.4" y2="30.7"/>
	<line fill="none" stroke="#FF0000" stroke-width="3" x1="722.4" y1="16.3" x2="759.5" y2="16.3"/>
	<line fill="none" stroke="#FF0000" stroke-width="3" x1="759.5" y1="16.3" x2="759.5" y2="30.7"/>
	<line fill="none" stroke="#FF0000" stroke-width="3" x1="759.5" y1="30.7" x2="796.6" y2="30.7"/>
	<line fill="none" stroke="#FF0000" stroke-width="3" x1="796.6" y1="16.3" x2="796.6" y2="30.7"/>
	<line fill="none" stroke="#FF0000" stroke-width="3" x1="796.6" y1="16.3" x2="833.8" y2="16.3"/>
	<line fill="none" stroke="#FF0000" stroke-width="3" x1="833.8" y1="16.3" x2="833.8" y2="30.7"/>
	<line fill="none" stroke="#FF0000" stroke-width="3" x1="833.8" y1="30.7" x2="870.9" y2="30.7"/>
	<line fill="none" stroke="#FF0000" stroke-width="3" x1="870.9" y1="16.3" x2="870.9" y2="30.7"/>
	<line fill="none" stroke="#FF0000" stroke-width="3" x1="870.9" y1="16.3" x2="908.1" y2="16.3"/>
	<line fill="none" stroke="#FF0000" stroke-width="3" x1="908.1" y1="16.3" x2="908.1" y2="30.7"/>
	<line fill="none" stroke="#FF0000" stroke-width="3" x1="908.1" y1="30.7" x2="945.1" y2="30.7"/>
	<line fill="none" stroke="#FF0000" stroke-width="3" x1="945.1" y1="16.3" x2="945.1" y2="30.7"/>
	<line fill="none" stroke="#FF0000" stroke-width="3" x1="945.1" y1="16.3" x2="982.3" y2="16.3"/>
	<line fill="none" stroke="#FF0000" stroke-width="3" x1="982.3" y1="16.3" x2="982.3" y2="30.7"/>
	<line fill="none" stroke="#FF0000" stroke-width="3" x1="982.3" y1="30.7" x2="1019.4" y2="30.7"/>
	<line fill="none" stroke="#FF0000" stroke-width="3" x1="1019.4" y1="16.3" x2="1019.4" y2="30.7"/>
	<line fill="none" stroke="#FF0000" stroke-width="3" x1="1019.4" y1="16.3" x2="1056.5" y2="16.3"/>
	<line fill="none" stroke="#FF0000" stroke-width="3" x1="1056.5" y1="16.3" x2="1056.5" y2="30.7"/>
	<line fill="none" stroke="#FF0000" stroke-width="3" x1="1056.5" y1="30.7" x2="1093.7" y2="30.7"/>
	<line fill="none" stroke="#FF0000" stroke-width="3" x1="1093.7" y1="16.3" x2="1093.7" y2="30.7"/>
	<line fill="none" stroke="#FF0000" stroke-width="3" x1="1093.7" y1="16.3" x2="1130.8" y2="16.3"/>
	<line fill="none" stroke="#FF0000" stroke-width="3" x1="1130.8" y1="16.3" x2="1130.8" y2="30.7"/>
	<line fill="none" stroke="#FF0000" stroke-width="3" x1="1130.8" y1="30.7" x2="1168" y2="30.7"/>
	<line fill="none" stroke="#FF0000" stroke-width="3" x1="1168" y1="16.3" x2="1168" y2="30.7"/>
	<line fill="none" stroke="#FF0000" stroke-width="3" x1="1168" y1="16.3" x2="1205.1" y2="16.3"/>
	<line fill="none" stroke="#FF0000" stroke-width="3" x1="1205.1" y1="16.3" x2="1205.1" y2="30.7"/>
	<line fill="none" stroke="#FF0000" stroke-width="3" x1="1205.1" y1="30.7" x2="1242.2" y2="30.7"/>
	<line fill="none" stroke="#FF0000" stroke-width="3" x1="1242.2" y1="16.3" x2="1242.2" y2="30.7"/>
	<line fill="none" stroke="#FF0000" stroke-width="3" x1="1242.2" y1="16.3" x2="1279.4" y2="16.3"/>
	<line fill="none" stroke="#FF0000" stroke-width="3" x1="1279.4" y1="16.3" x2="1279.4" y2="30.7"/>
	<line fill="none" stroke="#FF0000" stroke-width="3" x1="1279.4" y1="30.7" x2="1302" y2="30.7"/>
	<line fill="none" stroke="#FF0000" stroke-width="3" x1="31.2" y1="343.9" x2="31.2" y2="320.3"/>
	<line fill="none" stroke="#FF0000" stroke-width="3" x1="31.2" y1="320.3" x2="16.8" y2="320.3"/>
	<line fill="none" stroke="#FF0000" stroke-width="3" x1="16.8" y1="320.3" x2="16.8" y2="282.3"/>
	<line fill="none" stroke="#FF0000" stroke-width="3" x1="31.2" y1="282.3" x2="16.8" y2="282.3"/>
	<line fill="none" stroke="#FF0000" stroke-width="3" x1="31.2" y1="282.3" x2="31.2" y2="244.3"/>
	<line fill="none" stroke="#FF0000" stroke-width="3" x1="31.2" y1="244.3" x2="16.8" y2="244.3"/>
	<line fill="none" stroke="#FF0000" stroke-width="3" x1="16.8" y1="244.3" x2="16.8" y2="206.3"/>
	<line fill="none" stroke="#FF0000" stroke-width="3" x1="31.2" y1="206.3" x2="16.8" y2="206.3"/>
	<line fill="none" stroke="#FF0000" stroke-width="3" x1="31.2" y1="206.3" x2="31.2" y2="168.3"/>
	<line fill="none" stroke="#FF0000" stroke-width="3" x1="31.2" y1="168.3" x2="16.8" y2="168.3"/>
	<line fill="none" stroke="#FF0000" stroke-width="3" x1="16.8" y1="168.3" x2="16.8" y2="130.3"/>
	<line fill="none" stroke="#FF0000" stroke-width="3" x1="31.2" y1="130.3" x2="16.8" y2="130.3"/>
	<line fill="none" stroke="#FF0000" stroke-width="3" x1="31.2" y1="130.3" x2="31.2" y2="92.3"/>
	<line fill="none" stroke="#FF0000" stroke-width="3" x1="31.2" y1="92.3" x2="16.8" y2="92.3"/>
	<line fill="none" stroke="#FF0000" stroke-width="3" x1="16.8" y1="92.3" x2="16.8" y2="54.3"/>
	<line fill="none" stroke="#FF0000" stroke-width="3" x1="31.2" y1="54.3" x2="16.8" y2="54.3"/>
	<line fill="none" stroke="#FF0000" stroke-width="3" x1="31.2" y1="54.3" x2="31.2" y2="30.7"/>
	<line fill="none" stroke="#FF0000" stroke-width="3" x1="1302" y1="343.9" x2="1302" y2="320.3"/>
	<line fill="none" stroke="#FF0000" stroke-width="3" x1="1316.4" y1="320.3" x2="1302" y2="320.3"/>
	<line fill="none" stroke="#FF0000" stroke-width="3" x1="1316.4" y1="320.3" x2="1316.4" y2="282.3"/>
	<line fill="none" stroke="#FF0000" stroke-width="3" x1="1316.4" y1="282.3" x2="1302" y2="282.3"/>
	<line fill="none" stroke="#FF0000" stroke-width="3" x1="1302" y1="282.3" x2="1302" y2="244.3"/>
	<line fill="none" stroke="#FF0000" stroke-width="3" x1="1316.4" y1="244.3" x2="1302" y2="244.3"/>
	<line fill="none" stroke="#FF0000" stroke-width="3" x1="1316.4" y1="244.3" x2="1316.4" y2="206.3"/>
	<line fill="none" stroke="#FF0000" stroke-width="3" x1="1316.4" y1="206.3" x2="1302" y2="206.3"/>
	<line fill="none" stroke="#FF0000" stroke-width="3" x1="1302" y1="206.3" x2="1302" y2="168.3"/>
	<line fill="none" stroke="#FF0000" stroke-width="3" x1="1316.4" y1="168.3" x2="1302" y2="168.3"/>
	<line fill="none" stroke="#FF0000" stroke-width="3" x1="1316.4" y1="168.3" x2="1316.4" y2="130.3"/>
	<line fill="none" stroke="#FF0000" stroke-width="3" x1="1316.4" y1="130.3" x2="1302" y2="130.3"/>
	<line fill="none" stroke="#FF0000" stroke-width="3" x1="1302" y1="130.3" x2="1302" y2="92.3"/>
	<line fill="none" stroke="#FF0000" stroke-width="3" x1="1316.4" y1="92.3" x2="1302" y2="92.3"/>
	<line fill="none" stroke="#FF0000" stroke-width="3" x1="1316.4" y1="92.3" x2="1316.4" y2="54.3"/>
	<line fill="none" stroke="#FF0000" stroke-width="3" x1="1316.4" y1="54.3" x2="1302" y2="54.3"/>
	<line fill="none" stroke="#FF0000" stroke-width="3" x1="1302" y1="54.3" x2="1302" y2="30.7"/>
	<line fill="none" stroke="#FF0000" stroke-width="3" x1="20.6" y1="855.8" x2="57.7" y2="855.8"/>
	<line fill="none" stroke="#FF0000" stroke-width="3" x1="57.7" y1="841.4" x2="57.7" y2="855.8"/>
	<line fill="none" stroke="#FF0000" stroke-width="3" x1="57.7" y1="841.4" x2="94.9" y2="841.4"/>
	<line fill="none" stroke="#FF0000" stroke-width="3" x1="94.9" y1="841.4" x2="94.9" y2="855.8"/>
	<line fill="none" stroke="#FF0000" stroke-width="3" x1="94.9" y1="855.8" x2="132" y2="855.8"/>
	<line fill="none" stroke="#FF0000" stroke-width="3" x1="132" y1="841.4" x2="132" y2="855.8"/>
	<line fill="none" stroke="#FF0000" stroke-width="3" x1="132" y1="841.4" x2="169.1" y2="841.4"/>
	<line fill="none" stroke="#FF0000" stroke-width="3" x1="169.1" y1="841.4" x2="169.1" y2="855.8"/>
	<line fill="none" stroke="#FF0000" stroke-width="3" x1="169.1" y1="855.8" x2="206.3" y2="855.8"/>
	<line fill="none" stroke="#FF0000" stroke-width="3" x1="206.3" y1="841.4" x2="206.3" y2="855.8"/>
	<line fill="none" stroke="#FF0000" stroke-width="3" x1="206.3" y1="841.4" x2="243.4" y2="841.4"/>
	<line fill="none" stroke="#FF0000" stroke-width="3" x1="243.4" y1="841.4" x2="243.4" y2="855.8"/>
	<line fill="none" stroke="#FF0000" stroke-width="3" x1="243.4" y1="855.8" x2="280.5" y2="855.8"/>
	<line fill="none" stroke="#FF0000" stroke-width="3" x1="280.5" y1="841.4" x2="280.5" y2="855.8"/>
	<line fill="none" stroke="#FF0000" stroke-width="3" x1="280.5" y1="841.4" x2="317.7" y2="841.4"/>
	<line fill="none" stroke="#FF0000" stroke-width="3" x1="317.7" y1="841.4" x2="317.7" y2="855.8"/>
	<line fill="none" stroke="#FF0000" stroke-width="3" x1="317.7" y1="855.8" x2="354.8" y2="855.8"/>
	<line fill="none" stroke="#FF0000" stroke-width="3" x1="354.8" y1="841.4" x2="354.8" y2="855.8"/>
	<line fill="none" stroke="#FF0000" stroke-width="3" x1="354.8" y1="841.4" x2="392" y2="841.4"/>
	<line fill="none" stroke="#FF0000" stroke-width="3" x1="392" y1="841.4" x2="392" y2="855.8"/>
	<line fill="none" stroke="#FF0000" stroke-width="3" x1="392" y1="855.8" x2="429" y2="855.8"/>
	<line fill="none" stroke="#FF0000" stroke-width="3" x1="429" y1="841.4" x2="429" y2="855.8"/>
	<line fill="none" stroke="#FF0000" stroke-width="3" x1="429" y1="841.4" x2="466.2" y2="841.4"/>
	<line fill="none" stroke="#FF0000" stroke-width="3" x1="466.2" y1="841.4" x2="466.2" y2="855.8"/>
	<line fill="none" stroke="#FF0000" stroke-width="3" x1="466.2" y1="855.8" x2="503.4" y2="855.8"/>
	<line fill="none" stroke="#FF0000" stroke-width="3" x1="503.4" y1="841.4" x2="503.4" y2="855.8"/>
	<line fill="none" stroke="#FF0000" stroke-width="3" x1="503.4" y1="841.4" x2="540.4" y2="841.4"/>
	<line fill="none" stroke="#FF0000" stroke-width="3" x1="540.4" y1="841.4" x2="540.4" y2="855.8"/>
	<line fill="none" stroke="#FF0000" stroke-width="3" x1="540.4" y1="855.8" x2="577.6" y2="855.8"/>
	<line fill="none" stroke="#FF0000" stroke-width="3" x1="577.6" y1="841.4" x2="577.6" y2="855.8"/>
	<line fill="none" stroke="#FF0000" stroke-width="3" x1="577.6" y1="841.4" x2="614.7" y2="841.4"/>
	<line fill="none" stroke="#FF0000" stroke-width="3" x1="614.7" y1="841.4" x2="614.7" y2="855.8"/>
	<line fill="none" stroke="#FF0000" stroke-width="3" x1="614.7" y1="855.8" x2="651.9" y2="855.8"/>
	<line fill="none" stroke="#FF0000" stroke-width="3" x1="651.9" y1="841.4" x2="651.9" y2="855.8"/>
	<line fill="none" stroke="#FF0000" stroke-width="3" x1="651.9" y1="841.4" x2="689" y2="841.4"/>
	<line fill="none" stroke="#FF0000" stroke-width="3" x1="689" y1="841.4" x2="689" y2="855.8"/>
	<line fill="none" stroke="#FF0000" stroke-width="3" x1="689" y1="855.8" x2="726.1" y2="855.8"/>
	<line fill="none" stroke="#FF0000" stroke-width="3" x1="726.1" y1="841.4" x2="726.1" y2="855.8"/>
	<line fill="none" stroke="#FF0000" stroke-width="3" x1="726.1" y1="841.4" x2="763.3" y2="841.4"/>
	<line fill="none" stroke="#FF0000" stroke-width="3" x1="763.3" y1="841.4" x2="763.3" y2="855.8"/>
	<line fill="none" stroke="#FF0000" stroke-width="3" x1="763.3" y1="855.8" x2="800.4" y2="855.8"/>
	<line fill="none" stroke="#FF0000" stroke-width="3" x1="800.4" y1="841.4" x2="800.4" y2="855.8"/>
	<line fill="none" stroke="#FF0000" stroke-width="3" x1="800.4" y1="841.4" x2="837.5" y2="841.4"/>
	<line fill="none" stroke="#FF0000" stroke-width="3" x1="837.5" y1="841.4" x2="837.5" y2="855.8"/>
	<line fill="none" stroke="#FF0000" stroke-width="3" x1="837.5" y1="855.8" x2="874.7" y2="855.8"/>
	<line fill="none" stroke="#FF0000" stroke-width="3" x1="874.7" y1="841.4" x2="874.7" y2="855.8"/>
	<line fill="none" stroke="#FF0000" stroke-width="3" x1="874.7" y1="841.4" x2="911.8" y2="841.4"/>
	<line fill="none" stroke="#FF0000" stroke-width="3" x1="911.8" y1="841.4" x2="911.8" y2="855.8"/>
	<line fill="none" stroke="#FF0000" stroke-width="3" x1="911.8" y1="855.8" x2="948.9" y2="855.8"/>
	<line fill="none" stroke="#FF0000" stroke-width="3" x1="948.9" y1="841.4" x2="948.9" y2="855.8"/>
	<line fill="none" stroke="#FF0000" stroke-width="3" x1="948.9" y1="841.4" x2="986" y2="841.4"/>
	<line fill="none" stroke="#FF0000" stroke-width="3" x1="986" y1="841.4" x2="986" y2="855.8"/>
	<line fill="none" stroke="#FF0000" stroke-width="3" x1="986" y1="855.8" x2="1023.2" y2="855.8"/>
	<line fill="none" stroke="#FF0000" stroke-width="3" x1="1023.2" y1="841.4" x2="1023.2" y2="855.8"/>
	<line fill="none" stroke="#FF0000" stroke-width="3" x1="1023.2" y1="841.4" x2="1060.3" y2="841.4"/>
	<line fill="none" stroke="#FF0000" stroke-width="3" x1="1060.3" y1="841.4" x2="1060.3" y2="855.8"/>
	<line fill="none" stroke="#FF0000" stroke-width="3" x1="1060.3" y1="855.8" x2="1097.4" y2="855.8"/>
	<line fill="none" stroke="#FF0000" stroke-width="3" x1="1097.4" y1="841.4" x2="1097.4" y2="855.8"/>
	<line fill="none" stroke="#FF0000" stroke-width="3" x1="1097.4" y1="841.4" x2="1134.6" y2="841.4"/>
	<line fill="none" stroke="#FF0000" stroke-width="3" x1="1134.6" y1="841.4" x2="1134.6" y2="855.8"/>
	<line fill="none" stroke="#FF0000" stroke-width="3" x1="1134.6" y1="855.8" x2="1171.7" y2="855.8"/>
	<line fill="none" stroke="#FF0000" stroke-width="3" x1="1171.7" y1="841.4" x2="1171.7" y2="855.8"/>
	<line fill="none" stroke="#FF0000" stroke-width="3" x1="1171.7" y1="841.4" x2="1208.8" y2="841.4"/>
	<line fill="none" stroke="#FF0000" stroke-width="3" x1="1208.8" y1="841.4" x2="1208.8" y2="855.8"/>
	<line fill="none" stroke="#FF0000" stroke-width="3" x1="1208.8" y1="855.8" x2="1246" y2="855.8"/>
	<line fill="none" stroke="#FF0000" stroke-width="3" x1="1246" y1="841.4" x2="1246" y2="855.8"/>
	<line fill="none" stroke="#FF0000" stroke-width="3" x1="1246" y1="841.4" x2="1283.1" y2="841.4"/>
	<line fill="none" stroke="#FF0000" stroke-width="3" x1="1283.1" y1="841.4" x2="1283.1" y2="855.8"/>
	<line fill="none" stroke="#FF0000" stroke-width="3" x1="1283.1" y1="855.8" x2="1305.8" y2="855.8"/>
	<line fill="none" stroke="#FF0000" stroke-width="3" x1="20.6" y1="377" x2="57.7" y2="377"/>
	<line fill="none" stroke="#FF0000" stroke-width="3" x1="57.7" y1="377" x2="57.7" y2="405.8"/>
	<line fill="none" stroke="#FF0000" stroke-width="3" x1="57.7" y1="405.8" x2="94.9" y2="405.8"/>
	<line fill="none" stroke="#FF0000" stroke-width="3" x1="94.9" y1="377" x2="94.9" y2="405.8"/>
	<line fill="none" stroke="#FF0000" stroke-width="3" x1="94.9" y1="377" x2="132" y2="377"/>
	<line fill="none" stroke="#FF0000" stroke-width="3" x1="132" y1="377" x2="132" y2="405.8"/>
	<line fill="none" stroke="#FF0000" stroke-width="3" x1="132" y1="405.8" x2="169.1" y2="405.8"/>
	<line fill="none" stroke="#FF0000" stroke-width="3" x1="169.1" y1="377" x2="169.1" y2="405.8"/>
	<line fill="none" stroke="#FF0000" stroke-width="3" x1="169.1" y1="377" x2="206.3" y2="377"/>
	<line fill="none" stroke="#FF0000" stroke-width="3" x1="206.3" y1="377" x2="206.3" y2="405.8"/>
	<line fill="none" stroke="#FF0000" stroke-width="3" x1="206.3" y1="405.8" x2="243.4" y2="405.8"/>
	<line fill="none" stroke="#FF0000" stroke-width="3" x1="243.4" y1="377" x2="243.4" y2="405.8"/>
	<line fill="none" stroke="#FF0000" stroke-width="3" x1="243.4" y1="377" x2="280.5" y2="377"/>
	<line fill="none" stroke="#FF0000" stroke-width="3" x1="280.5" y1="377" x2="280.5" y2="405.8"/>
	<line fill="none" stroke="#FF0000" stroke-width="3" x1="280.5" y1="405.8" x2="317.7" y2="405.8"/>
	<line fill="none" stroke="#FF0000" stroke-width="3" x1="317.7" y1="377" x2="317.7" y2="405.8"/>
	<line fill="none" stroke="#FF0000" stroke-width="3" x1="317.7" y1="377" x2="354.8" y2="377"/>
	<line fill="none" stroke="#FF0000" stroke-width="3" x1="354.8" y1="377" x2="354.8" y2="405.8"/>
	<line fill="none" stroke="#FF0000" stroke-width="3" x1="354.8" y1="405.8" x2="392" y2="405.8"/>
	<line fill="none" stroke="#FF0000" stroke-width="3" x1="392" y1="377" x2="392" y2="405.8"/>
	<line fill="none" stroke="#FF0000" stroke-width="3" x1="392" y1="377" x2="429" y2="377"/>
	<line fill="none" stroke="#FF0000" stroke-width="3" x1="429" y1="377" x2="429" y2="405.8"/>
	<line fill="none" stroke="#FF0000" stroke-width="3" x1="429" y1="405.8" x2="466.2" y2="405.8"/>
	<line fill="none" stroke="#FF0000" stroke-width="3" x1="466.2" y1="377" x2="466.2" y2="405.8"/>
	<line fill="none" stroke="#FF0000" stroke-width="3" x1="466.2" y1="377" x2="503.4" y2="377"/>
	<line fill="none" stroke="#FF0000" stroke-width="3" x1="503.4" y1="377" x2="503.4" y2="405.8"/>
	<line fill="none" stroke="#FF0000" stroke-width="3" x1="503.4" y1="405.8" x2="540.4" y2="405.8"/>
	<line fill="none" stroke="#FF0000" stroke-width="3" x1="540.4" y1="377" x2="540.4" y2="405.8"/>
	<line fill="none" stroke="#FF0000" stroke-width="3" x1="540.4" y1="377" x2="577.6" y2="377"/>
	<line fill="none" stroke="#FF0000" stroke-width="3" x1="577.6" y1="377" x2="577.6" y2="405.8"/>
	<line fill="none" stroke="#FF0000" stroke-width="3" x1="577.6" y1="405.8" x2="614.7" y2="405.8"/>
	<line fill="none" stroke="#FF0000" stroke-width="3" x1="614.7" y1="377" x2="614.7" y2="405.8"/>
	<line fill="none" stroke="#FF0000" stroke-width="3" x1="614.7" y1="377" x2="651.9" y2="377"/>
	<line fill="none" stroke="#FF0000" stroke-width="3" x1="651.9" y1="377" x2="651.9" y2="405.8"/>
	<line fill="none" stroke="#FF0000" stroke-width="3" x1="651.9" y1="405.8" x2="689" y2="405.8"/>
	<line fill="none" stroke="#FF0000" stroke-width="3" x1="689" y1="377" x2="689" y2="405.8"/>
	<line fill="none" stroke="#FF0000" stroke-width="3" x1="689" y1="377" x2="726.1" y2="377"/>
	<line fill="none" stroke="#FF0000" stroke-width="3" x1="726.1" y1="377" x2="726.1" y2="405.8"/>
	<line fill="none" stroke="#FF0000" stroke-width="3" x1="726.1" y1="405.8" x2="763.3" y2="405.8"/>
	<line fill="none" stroke="#FF0000" stroke-width="3" x1="763.3" y1="377" x2="763.3" y2="405.8"/>
	<line fill="none" stroke="#FF0000" stroke-width="3" x1="763.3" y1="377" x2="800.4" y2="377"/>
	<line fill="none" stroke="#FF0000" stroke-width="3" x1="800.4" y1="377" x2="800.4" y2="405.8"/>
	<line fill="none" stroke="#FF0000" stroke-width="3" x1="800.4" y1="405.8" x2="837.5" y2="405.8"/>
	<line fill="none" stroke="#FF0000" stroke-width="3" x1="837.5" y1="377" x2="837.5" y2="405.8"/>
	<line fill="none" stroke="#FF0000" stroke-width="3" x1="837.5" y1="377" x2="874.7" y2="377"/>
	<line fill="none" stroke="#FF0000" stroke-width="3" x1="874.7" y1="377" x2="874.7" y2="405.8"/>
	<line fill="none" stroke="#FF0000" stroke-width="3" x1="874.7" y1="405.8" x2="911.8" y2="405.8"/>
	<line fill="none" stroke="#FF0000" stroke-width="3" x1="911.8" y1="377" x2="911.8" y2="405.8"/>
	<line fill="none" stroke="#FF0000" stroke-width="3" x1="911.8" y1="377" x2="948.9" y2="377"/>
	<line fill="none" stroke="#FF0000" stroke-width="3" x1="948.9" y1="377" x2="948.9" y2="405.8"/>
	<line fill="none" stroke="#FF0000" stroke-width="3" x1="948.9" y1="405.8" x2="986" y2="405.8"/>
	<line fill="none" stroke="#FF0000" stroke-width="3" x1="986" y1="377" x2="986" y2="405.8"/>
	<line fill="none" stroke="#FF0000" stroke-width="3" x1="986" y1="377" x2="1023.2" y2="377"/>
	<line fill="none" stroke="#FF0000" stroke-width="3" x1="1023.2" y1="377" x2="1023.2" y2="405.8"/>
	<line fill="none" stroke="#FF0000" stroke-width="3" x1="1023.2" y1="405.8" x2="1060.3" y2="405.8"/>
	<line fill="none" stroke="#FF0000" stroke-width="3" x1="1060.3" y1="377" x2="1060.3" y2="405.8"/>
	<line fill="none" stroke="#FF0000" stroke-width="3" x1="1060.3" y1="377" x2="1097.4" y2="377"/>
	<line fill="none" stroke="#FF0000" stroke-width="3" x1="1097.4" y1="377" x2="1097.4" y2="405.8"/>
	<line fill="none" stroke="#FF0000" stroke-width="3" x1="1097.4" y1="405.8" x2="1134.6" y2="405.8"/>
	<line fill="none" stroke="#FF0000" stroke-width="3" x1="1134.6" y1="377" x2="1134.6" y2="405.8"/>
	<line fill="none" stroke="#FF0000" stroke-width="3" x1="1134.6" y1="377" x2="1171.7" y2="377"/>
	<line fill="none" stroke="#FF0000" stroke-width="3" x1="1171.7" y1="377" x2="1171.7" y2="405.8"/>
	<line fill="none" stroke="#FF0000" stroke-width="3" x1="1171.7" y1="405.8" x2="1208.8" y2="405.8"/>
	<line fill="none" stroke="#FF0000" stroke-width="3" x1="1208.8" y1="377" x2="1208.8" y2="405.8"/>
	<line fill="none" stroke="#FF0000" stroke-width="3" x1="1208.8" y1="377" x2="1246" y2="377"/>
	<line fill="none" stroke="#FF0000" stroke-width="3" x1="1246" y1="377" x2="1246" y2="405.8"/>
	<line fill="none" stroke="#FF0000" stroke-width="3" x1="1246" y1="405.8" x2="1283.1" y2="405.8"/>
	<line fill="none" stroke="#FF0000" stroke-width="3" x1="1283.1" y1="377" x2="1283.1" y2="405.8"/>
	<line fill="none" stroke="#FF0000" stroke-width="3" x1="1283.1" y1="377" x2="1305.8" y2="377"/>
	<line fill="none" stroke="#FF0000" stroke-width="3" x1="20.6" y1="855.8" x2="20.6" y2="819"/>
	<line fill="none" stroke="#FF0000" stroke-width="3" x1="35" y1="819" x2="20.6" y2="819"/>
	<line fill="none" stroke="#FF0000" stroke-width="3" x1="35" y1="819" x2="35" y2="782.1"/>
	<line fill="none" stroke="#FF0000" stroke-width="3" x1="35" y1="782.1" x2="20.6" y2="782.1"/>
	<line fill="none" stroke="#FF0000" stroke-width="3" x1="20.6" y1="782.1" x2="20.6" y2="745.3"/>
	<line fill="none" stroke="#FF0000" stroke-width="3" x1="35" y1="745.3" x2="20.6" y2="745.3"/>
	<line fill="none" stroke="#FF0000" stroke-width="3" x1="35" y1="745.3" x2="35" y2="708.5"/>
	<line fill="none" stroke="#FF0000" stroke-width="3" x1="35" y1="708.5" x2="20.6" y2="708.5"/>
	<line fill="none" stroke="#FF0000" stroke-width="3" x1="20.6" y1="708.5" x2="20.6" y2="671.7"/>
	<line fill="none" stroke="#FF0000" stroke-width="3" x1="35" y1="671.7" x2="20.6" y2="671.7"/>
	<line fill="none" stroke="#FF0000" stroke-width="3" x1="35" y1="671.7" x2="35" y2="634.8"/>
	<line fill="none" stroke="#FF0000" stroke-width="3" x1="35" y1="634.8" x2="20.6" y2="634.8"/>
	<line fill="none" stroke="#FF0000" stroke-width="3" x1="20.6" y1="634.8" x2="20.6" y2="598"/>
	<line fill="none" stroke="#FF0000" stroke-width="3" x1="35" y1="598" x2="20.6" y2="598"/>
	<line fill="none" stroke="#FF0000" stroke-width="3" x1="35" y1="598" x2="35" y2="561.2"/>
	<line fill="none" stroke="#FF0000" stroke-width="3" x1="35" y1="561.2" x2="20.6" y2="561.2"/>
	<line fill="none" stroke="#FF0000" stroke-width="3" x1="20.6" y1="561.2" x2="20.6" y2="524.3"/>
	<line fill="none" stroke="#FF0000" stroke-width="3" x1="35" y1="524.3" x2="20.6" y2="524.3"/>
	<line fill="none" stroke="#FF0000" stroke-width="3" x1="35" y1="524.3" x2="35" y2="487.5"/>
	<line fill="none" stroke="#FF0000" stroke-width="3" x1="35" y1="487.5" x2="20.6" y2="487.5"/>
	<line fill="none" stroke="#FF0000" stroke-width="3" x1="20.6" y1="487.5" x2="20.6" y2="450.6"/>
	<line fill="none" stroke="#FF0000" stroke-width="3" x1="35" y1="450.6" x2="20.6" y2="450.6"/>
	<line fill="none" stroke="#FF0000" stroke-width="3" x1="35" y1="450.6" x2="35" y2="413.9"/>
	<line fill="none" stroke="#FF0000" stroke-width="3" x1="35" y1="413.9" x2="20.6" y2="413.9"/>
	<line fill="none" stroke="#FF0000" stroke-width="3" x1="20.6" y1="413.9" x2="20.6" y2="377"/>
	<line fill="none" stroke="#FF0000" stroke-width="3" x1="1305.8" y1="855.8" x2="1305.8" y2="819"/>
	<line fill="none" stroke="#FF0000" stroke-width="3" x1="1320.2" y1="819" x2="1305.8" y2="819"/>
	<line fill="none" stroke="#FF0000" stroke-width="3" x1="1320.2" y1="819" x2="1320.2" y2="782.1"/>
	<line fill="none" stroke="#FF0000" stroke-width="3" x1="1320.2" y1="782.1" x2="1305.8" y2="782.1"/>
	<line fill="none" stroke="#FF0000" stroke-width="3" x1="1305.8" y1="782.1" x2="1305.8" y2="745.3"/>
	<line fill="none" stroke="#FF0000" stroke-width="3" x1="1320.2" y1="745.3" x2="1305.8" y2="745.3"/>
	<line fill="none" stroke="#FF0000" stroke-width="3" x1="1320.2" y1="745.3" x2="1320.2" y2="708.5"/>
	<line fill="none" stroke="#FF0000" stroke-width="3" x1="1320.2" y1="708.5" x2="1305.8" y2="708.5"/>
	<line fill="none" stroke="#FF0000" stroke-width="3" x1="1305.8" y1="708.5" x2="1305.8" y2="671.7"/>
	<line fill="none" stroke="#FF0000" stroke-width="3" x1="1320.2" y1="671.7" x2="1305.8" y2="671.7"/>
	<line fill="none" stroke="#FF0000" stroke-width="3" x1="1320.2" y1="671.7" x2="1320.2" y2="634.8"/>
	<line fill="none" stroke="#FF0000" stroke-width="3" x1="1320.2" y1="634.8" x2="1305.8" y2="634.8"/>
	<line fill="none" stroke="#FF0000" stroke-width="3" x1="1305.8" y1="634.8" x2="1305.8" y2="598"/>
	<line fill="none" stroke="#FF0000" stroke-width="3" x1="1320.2" y1="598" x2="1305.8" y2="598"/>
	<line fill="none" stroke="#FF0000" stroke-width="3" x1="1320.2" y1="598" x2="1320.2" y2="561.2"/>
	<line fill="none" stroke="#FF0000" stroke-width="3" x1="1320.2" y1="561.2" x2="1305.8" y2="561.2"/>
	<line fill="none" stroke="#FF0000" stroke-width="3" x1="1305.8" y1="561.2" x2="1305.8" y2="524.3"/>
	<line fill="none" stroke="#FF0000" stroke-width="3" x1="1320.2" y1="524.3" x2="1305.8" y2="524.3"/>
	<line fill="none" stroke="#FF0000" stroke-width="3" x1="1320.2" y1="524.3" x2="1320.2" y2="487.5"/>
	<line fill="none" stroke="#FF0000" stroke-width="3" x1="1320.2" y1="487.5" x2="1305.8" y2="487.5"/>
	<line fill="none" stroke="#FF0000" stroke-width="3" x1="1305.8" y1="487.5" x2="1305.8" y2="450.6"/>
	<line fill="none" stroke="#FF0000" stroke-width="3" x1="1320.2" y1="450.6" x2="1305.8" y2="450.6"/>
	<line fill="none" stroke="#FF0000" stroke-width="3" x1="1320.2" y1="450.6" x2="1320.2" y2="413.9"/>
	<line fill="none" stroke="#FF0000" stroke-width="3" x1="1320.2" y1="413.9" x2="1305.8" y2="413.9"/>
	<line fill="none" stroke="#FF0000" stroke-width="3" x1="1305.8" y1="413.9" x2="1305.8" y2="377"/>
	<rect x="159.6" y="472.1" fill="none" stroke="#FF0000" stroke-width="3" width="1008" height="298.8"/>
	<circle fill="none" stroke="#FF0000" stroke-width="3" cx="374.7" cy="456.6" r="2.2"/>
	<circle fill="none" stroke="#FF0000" stroke-width="3" cx="920.5" cy="455.7" r="2.2"/>
	<circle fill="none" stroke="#FF0000" stroke-width="3" cx="645.7" cy="455.7" r="2.2"/>
	<circle fill="none" stroke="#FF0000" stroke-width="3" cx="374.7" cy="788.1" r="2.2"/>
	<circle fill="none" stroke="#FF0000" stroke-width="3" cx="920.5" cy="787.2" r="2.2"/>
	<circle fill="none" stroke="#FF0000" stroke-width="3" cx="645.7" cy="787.2" r="2.2"/>
	<circle fill="none" stroke="#FF0000" stroke-width="3" cx="1185" cy="718.9" r="2.2"/>
	<circle fill="none" stroke="#FF0000" stroke-width="3" cx="1185" cy="539.1" r="2.2"/>
	<circle fill="none" stroke="#FF0000" stroke-width="3" cx="142.7" cy="718.9" r="2.2"/>
	<circle fill="none" stroke="#FF0000" stroke-width="3" cx="142.7" cy="539.1" r="2.2"/>
	<circle fill="none" stroke="#FF0000" stroke-width="3" cx="1358.5" cy="278" r="3.6"/>
	<circle fill="none" stroke="#FF0000" stroke-width="3" cx="1357.7" cy="823.8" r="3.6"/>
	<circle fill="none" stroke="#FF0000" stroke-width="3" cx="1357.7" cy="549" r="3.6"/>
	<circle fill="none" stroke="#FF0000" stroke-width="3" cx="1690" cy="278" r="3.6"/>
	<circle fill="none" stroke="#FF0000" stroke-width="3" cx="1689.2" cy="823.9" r="4.3"/>
	<circle fill="none" stroke="#FF0000" stroke-width="3" cx="1689.2" cy="549" r="4.3"/>
	<circle fill="none" stroke="#FF0000" stroke-width="3" cx="1620.9" cy="1088.4" r="4.3"/>
	<circle fill="none" stroke="#FF0000" stroke-width="3" cx="1441.1" cy="1088.4" r="4.3"/>
	<circle fill="none" stroke="#FF0000" stroke-width="3" cx="1620.9" cy="46.1" r="3.6"/>
	<circle fill="none" stroke="#FF0000" stroke-width="3" cx="1441.1" cy="46.1" r="4.3"/>
	<rect x="1330.8" y="19.7" fill="none" stroke="#FF0000" stroke-width="3" width="385.2" height="1094.4"/>
	<path fill="none" stroke="#FF0000" stroke-width="3" d="M2045.9,244.8c-17.2,39.2-48.7,70.6-87.8,87.8h-137.5
		c-39.2-17.2-70.6-48.7-87.8-87.9V107.3c17.2-39.2,48.7-70.6,87.8-87.8H1958c39.2,17.2,70.6,48.7,87.8,87.8V244.8z"/>
	<circle fill="none" stroke="#FF0000" stroke-width="3" cx="1998" cy="283.3" r="5.4"/>
	<circle fill="none" stroke="#FF0000" stroke-width="3" cx="1998" cy="65.9" r="5.4"/>
	<circle fill="none" stroke="#FF0000" stroke-width="3" cx="1780.5" cy="283.3" r="5.4"/>
	<circle fill="none" stroke="#FF0000" stroke-width="3" cx="1780.5" cy="65.9" r="5.4"/>
	<g id="_210267864">
		<path fill="none" stroke="#FF0000" stroke-width="3" d="M1993.9,88c42.8,51,42.6,125.9-0.7,176.7l-10.2-10.2
			c37.8-45.1,38-110.9,0.7-156.2L1993.9,88z M1968.6,82.8c-45.4-38.8-112.4-39.1-158-0.8l-10.2-10.2c51.3-43.8,127.4-43.6,178.5,0.8
			L1968.6,82.8z M1977.9,279.9c-50.8,43.4-125.7,43.6-176.7,0.8l10.2-10.2c45.4,37.3,111.2,37.1,156.3-0.8L1977.9,279.9
			L1977.9,279.9z M1785.8,265.6c-44.4-51-44.6-127.2-0.7-178.5l10.2,10.2c-38.3,45.6-38.1,112.7,0.7,158L1785.8,265.6z"/>
		<path fill="none" stroke="#FF0000" stroke-width="3" d="M1973.4,108.5c31.8,39.6,31.5,96.4-0.7,135.8l-10.2-10.2
			c26.7-33.6,26.9-81.4,0.7-115.3L1973.4,108.5L1973.4,108.5z M1948.1,103.3c-34-27.6-82.9-27.9-117.1-0.8l-10.2-10.2
			c40-32.7,97.9-32.5,137.6,0.8L1948.1,103.3L1948.1,103.3z M1957.5,259.6c-39.4,32.3-96.2,32.5-135.8,0.8l10.2-10.2
			c33.9,26.2,81.6,26,115.3-0.7L1957.5,259.6L1957.5,259.6z M1806.2,245.2c-33.3-39.7-33.5-97.7-0.7-137.7l10.2,10.2
			c-27.2,34.3-27,83.2,0.7,117.1L1806.2,245.2L1806.2,245.2z"/>
		<path fill="none" stroke="#FF0000" stroke-width="3" d="M1952.9,129c20.7,28.2,20.5,66.8-0.7,94.8l-10.3-10.3
			c15.7-22.1,15.9-51.8,0.6-74.1L1952.9,129L1952.9,129z M1927.6,123.8c-22.5-16.6-53.3-16.9-76-0.7l-10.3-10.3
			c28.5-21.7,68.3-21.4,96.6,0.7L1927.6,123.8z M1936.9,239c-27.9,21.2-66.6,21.5-94.8,0.7l10.3-10.3c22.3,15.3,52.1,15,74.2-0.7
			L1936.9,239z M1826.6,224.6c-22.2-28.3-22.4-68.1-0.7-96.6l10.3,10.3c-16.2,22.8-16,53.6,0.6,76.1L1826.6,224.6L1826.6,224.6z"/>
		<path fill="none" stroke="#FF0000" stroke-width="3" d="M1932.2,149.8c9.9,16.3,9.7,37.2-0.6,53.3l-10.5-10.5
			c5.3-10,5.4-22,0.5-32.2L1932.2,149.8L1932.2,149.8z M1906.8,144.6c-10.6-6-23.6-6.2-34.3-0.6l-10.5-10.5
			c16.8-10.8,38.7-10.6,55.3,0.6L1906.8,144.6z M1916.4,218.4c-16.2,10.4-37,10.6-53.4,0.6l10.6-10.6c10.2,4.9,22.2,4.7,32.3-0.6
			L1916.4,218.4z M1847.4,204.1c-11.2-16.6-11.4-38.5-0.6-55.4l10.5,10.5c-5.6,10.8-5.5,23.8,0.6,34.4L1847.4,204.1z"/>
		<circle fill="none" stroke="#FF0000" stroke-width="3" cx="1889.1" cy="175.9" r="21.6"/>
	</g>
	<path fill="none" stroke="#FF0000" stroke-width="3" d="M2053.1,570.6c-17.2,39.2-48.7,70.6-87.8,87.8h-137.5
		c-39.2-17.2-70.6-48.7-87.8-87.9V433.1c17.2-39.2,48.7-70.6,87.8-87.8h137.5c39.2,17.2,70.6,48.7,87.8,87.8V570.6z"/>
	<circle fill="none" stroke="#FF0000" stroke-width="3" cx="2005.1" cy="609.1" r="5.4"/>
	<circle fill="none" stroke="#FF0000" stroke-width="3" cx="2005.1" cy="391.7" r="5.4"/>
	<circle fill="none" stroke="#FF0000" stroke-width="3" cx="1787.7" cy="609.1" r="5.4"/>
	<circle fill="none" stroke="#FF0000" stroke-width="3" cx="1787.7" cy="391.7" r="5.4"/>
	<g id="_210270000">
		<path fill="none" stroke="#FF0000" stroke-width="3" d="M2001.1,413.8c42.8,51,42.6,125.9-0.7,176.7l-10.2-10.2
			c37.8-45.1,38-110.9,0.7-156.2L2001.1,413.8z M1975.8,408.6c-45.4-38.8-112.4-39.1-158-0.8l-10.2-10.2
			c51.3-43.8,127.4-43.6,178.5,0.8L1975.8,408.6z M1985.1,605.7c-50.8,43.4-125.7,43.6-176.7,0.8l10.2-10.2
			c45.4,37.3,111.2,37.1,156.3-0.8L1985.1,605.7L1985.1,605.7z M1793,591.4c-44.4-51-44.6-127.2-0.7-178.5l10.2,10.2
			c-38.3,45.6-38.1,112.7,0.7,158L1793,591.4z"/>
		<path fill="none" stroke="#FF0000" stroke-width="3" d="M1960.1,454.8c20.7,28.2,20.5,66.8-0.7,94.8l-10.3-10.3
			c15.7-22.1,15.9-51.8,0.6-74.1L1960.1,454.8L1960.1,454.8z M1934.7,449.6c-22.5-16.6-53.3-16.9-76-0.7l-10.3-10.3
			c28.5-21.7,68.3-21.4,96.6,0.7L1934.7,449.6z M1944.1,564.8c-27.9,21.2-66.6,21.5-94.8,0.7l10.3-10.3c22.3,15.3,52.1,15,74.2-0.7
			L1944.1,564.8z M1833.8,550.4c-22.2-28.3-22.4-68.1-0.7-96.6l10.3,10.3c-16.2,22.8-16,53.6,0.6,76.1L1833.8,550.4L1833.8,550.4z"
			/>
		<circle fill="none" stroke="#FF0000" stroke-width="3" cx="1896.2" cy="501.7" r="21.6"/>
		<rect x="1760.3" y="494.5" fill="none" stroke="#FF0000" stroke-width="1.732" width="135.2" height="14.4"/>
		<rect x="1896.5" y="494.5" fill="none" stroke="#FF0000" stroke-width="1.732" width="136.4" height="14.4"/>
	</g>
</g>
<rect x="1887.6" y="365.1" fill="none" stroke="#FF0000" stroke-width="2.415" width="14.4" height="129.4"/>
<rect x="1887.6" y="494.5" fill="none" stroke="#FF0000" stroke-width="2.415" width="14.4" height="144"/>
</svg>
