<?xml version="1.0" encoding="UTF-8"?>
<!DOCTYPE svg PUBLIC "-//W3C//DTD SVG 1.1//EN" "http://www.w3.org/Graphics/SVG/1.1/DTD/svg11.dtd">
<!-- Creator: CorelDRAW Home & Student X6 -->
<svg xmlns="http://www.w3.org/2000/svg" xml:space="preserve" width="32in" height="18in" version="1.1" style="shape-rendering:geometricPrecision; text-rendering:geometricPrecision; image-rendering:optimizeQuality; fill-rule:evenodd; clip-rule:evenodd"
viewBox="0 0 32000 18000"
 xmlns:xlink="http://www.w3.org/1999/xlink">
 <defs>
  <style type="text/css">
   <![CDATA[
    .str0 {stroke:red;stroke-width:3}
    .fil1 {fill:none}
    .fil0 {fill:none;fill-rule:nonzero}
   ]]>
  </style>
 </defs>
 <g id="Layer_x0020_1">
  <metadata id="CorelCorpID_0Corel-Layer"/>
  <line class="fil0 str0" x1="391" y1="4653" x2="706" y2= "4653" />
  <line class="fil0 str0" x1="706" y1="4653" x2="706" y2= "4853" />
  <line class="fil0 str0" x1="706" y1="4853" x2="1222" y2= "4853" />
  <line class="fil0 str0" x1="1222" y1="4653" x2="1222" y2= "4853" />
  <line class="fil0 str0" x1="1222" y1="4653" x2="1738" y2= "4653" />
  <line class="fil0 str0" x1="1738" y1="4653" x2="1738" y2= "4853" />
  <line class="fil0 str0" x1="1738" y1="4853" x2="2254" y2= "4853" />
  <line class="fil0 str0" x1="2254" y1="4653" x2="2254" y2= "4853" />
  <line class="fil0 str0" x1="2254" y1="4653" x2="2769" y2= "4653" />
  <line class="fil0 str0" x1="2769" y1="4653" x2="2769" y2= "4853" />
  <line class="fil0 str0" x1="2769" y1="4853" x2="3285" y2= "4853" />
  <line class="fil0 str0" x1="3285" y1="4653" x2="3285" y2= "4853" />
  <line class="fil0 str0" x1="3285" y1="4653" x2="3801" y2= "4653" />
  <line class="fil0 str0" x1="3801" y1="4653" x2="3801" y2= "4853" />
  <line class="fil0 str0" x1="3801" y1="4853" x2="4316" y2= "4853" />
  <line class="fil0 str0" x1="4316" y1="4653" x2="4316" y2= "4853" />
  <line class="fil0 str0" x1="4316" y1="4653" x2="4832" y2= "4653" />
  <line class="fil0 str0" x1="4832" y1="4653" x2="4832" y2= "4853" />
  <line class="fil0 str0" x1="4832" y1="4853" x2="5348" y2= "4853" />
  <line class="fil0 str0" x1="5348" y1="4653" x2="5348" y2= "4853" />
  <line class="fil0 str0" x1="5348" y1="4653" x2="5864" y2= "4653" />
  <line class="fil0 str0" x1="5864" y1="4653" x2="5864" y2= "4853" />
  <line class="fil0 str0" x1="5864" y1="4853" x2="6379" y2= "4853" />
  <line class="fil0 str0" x1="6379" y1="4653" x2="6379" y2= "4853" />
  <line class="fil0 str0" x1="6379" y1="4653" x2="6895" y2= "4653" />
  <line class="fil0 str0" x1="6895" y1="4653" x2="6895" y2= "4853" />
  <line class="fil0 str0" x1="6895" y1="4853" x2="7411" y2= "4853" />
  <line class="fil0 str0" x1="7411" y1="4653" x2="7411" y2= "4853" />
  <line class="fil0 str0" x1="7411" y1="4653" x2="7926" y2= "4653" />
  <line class="fil0 str0" x1="7926" y1="4653" x2="7926" y2= "4853" />
  <line class="fil0 str0" x1="7926" y1="4853" x2="8442" y2= "4853" />
  <line class="fil0 str0" x1="8442" y1="4653" x2="8442" y2= "4853" />
  <line class="fil0 str0" x1="8442" y1="4653" x2="8958" y2= "4653" />
  <line class="fil0 str0" x1="8958" y1="4653" x2="8958" y2= "4853" />
  <line class="fil0 str0" x1="8958" y1="4853" x2="9474" y2= "4853" />
  <line class="fil0 str0" x1="9474" y1="4653" x2="9474" y2= "4853" />
  <line class="fil0 str0" x1="9474" y1="4653" x2="9989" y2= "4653" />
  <line class="fil0 str0" x1="9989" y1="4653" x2="9989" y2= "4853" />
  <line class="fil0 str0" x1="9989" y1="4853" x2="10505" y2= "4853" />
  <line class="fil0 str0" x1="10505" y1="4653" x2="10505" y2= "4853" />
  <line class="fil0 str0" x1="10505" y1="4653" x2="11021" y2= "4653" />
  <line class="fil0 str0" x1="11021" y1="4653" x2="11021" y2= "4853" />
  <line class="fil0 str0" x1="11021" y1="4853" x2="11536" y2= "4853" />
  <line class="fil0 str0" x1="11536" y1="4653" x2="11536" y2= "4853" />
  <line class="fil0 str0" x1="11536" y1="4653" x2="12052" y2= "4653" />
  <line class="fil0 str0" x1="12052" y1="4653" x2="12052" y2= "4853" />
  <line class="fil0 str0" x1="12052" y1="4853" x2="12568" y2= "4853" />
  <line class="fil0 str0" x1="12568" y1="4653" x2="12568" y2= "4853" />
  <line class="fil0 str0" x1="12568" y1="4653" x2="13084" y2= "4653" />
  <line class="fil0 str0" x1="13084" y1="4653" x2="13084" y2= "4853" />
  <line class="fil0 str0" x1="13084" y1="4853" x2="13599" y2= "4853" />
  <line class="fil0 str0" x1="13599" y1="4653" x2="13599" y2= "4853" />
  <line class="fil0 str0" x1="13599" y1="4653" x2="14115" y2= "4653" />
  <line class="fil0 str0" x1="14115" y1="4653" x2="14115" y2= "4853" />
  <line class="fil0 str0" x1="14115" y1="4853" x2="14631" y2= "4853" />
  <line class="fil0 str0" x1="14631" y1="4653" x2="14631" y2= "4853" />
  <line class="fil0 str0" x1="14631" y1="4653" x2="15146" y2= "4653" />
  <line class="fil0 str0" x1="15146" y1="4653" x2="15146" y2= "4853" />
  <line class="fil0 str0" x1="15146" y1="4853" x2="15662" y2= "4853" />
  <line class="fil0 str0" x1="15662" y1="4653" x2="15662" y2= "4853" />
  <line class="fil0 str0" x1="15662" y1="4653" x2="16178" y2= "4653" />
  <line class="fil0 str0" x1="16178" y1="4653" x2="16178" y2= "4853" />
  <line class="fil0 str0" x1="16178" y1="4853" x2="16694" y2= "4853" />
  <line class="fil0 str0" x1="16694" y1="4653" x2="16694" y2= "4853" />
  <line class="fil0 str0" x1="16694" y1="4653" x2="17209" y2= "4653" />
  <line class="fil0 str0" x1="17209" y1="4653" x2="17209" y2= "4853" />
  <line class="fil0 str0" x1="17209" y1="4853" x2="17725" y2= "4853" />
  <line class="fil0 str0" x1="17725" y1="4653" x2="17725" y2= "4853" />
  <line class="fil0 str0" x1="17725" y1="4653" x2="18041" y2= "4653" />
  <line class="fil0 str0" x1="391" y1="303" x2="706" y2= "303" />
  <line class="fil0 str0" x1="706" y1="103" x2="706" y2= "303" />
  <line class="fil0 str0" x1="706" y1="103" x2="1222" y2= "103" />
  <line class="fil0 str0" x1="1222" y1="103" x2="1222" y2= "303" />
  <line class="fil0 str0" x1="1222" y1="303" x2="1738" y2= "303" />
  <line class="fil0 str0" x1="1738" y1="103" x2="1738" y2= "303" />
  <line class="fil0 str0" x1="1738" y1="103" x2="2254" y2= "103" />
  <line class="fil0 str0" x1="2254" y1="103" x2="2254" y2= "303" />
  <line class="fil0 str0" x1="2254" y1="303" x2="2769" y2= "303" />
  <line class="fil0 str0" x1="2769" y1="103" x2="2769" y2= "303" />
  <line class="fil0 str0" x1="2769" y1="103" x2="3285" y2= "103" />
  <line class="fil0 str0" x1="3285" y1="103" x2="3285" y2= "303" />
  <line class="fil0 str0" x1="3285" y1="303" x2="3801" y2= "303" />
  <line class="fil0 str0" x1="3801" y1="103" x2="3801" y2= "303" />
  <line class="fil0 str0" x1="3801" y1="103" x2="4316" y2= "103" />
  <line class="fil0 str0" x1="4316" y1="103" x2="4316" y2= "303" />
  <line class="fil0 str0" x1="4316" y1="303" x2="4832" y2= "303" />
  <line class="fil0 str0" x1="4832" y1="103" x2="4832" y2= "303" />
  <line class="fil0 str0" x1="4832" y1="103" x2="5348" y2= "103" />
  <line class="fil0 str0" x1="5348" y1="103" x2="5348" y2= "303" />
  <line class="fil0 str0" x1="5348" y1="303" x2="5864" y2= "303" />
  <line class="fil0 str0" x1="5864" y1="103" x2="5864" y2= "303" />
  <line class="fil0 str0" x1="5864" y1="103" x2="6379" y2= "103" />
  <line class="fil0 str0" x1="6379" y1="103" x2="6379" y2= "303" />
  <line class="fil0 str0" x1="6379" y1="303" x2="6895" y2= "303" />
  <line class="fil0 str0" x1="6895" y1="103" x2="6895" y2= "303" />
  <line class="fil0 str0" x1="6895" y1="103" x2="7411" y2= "103" />
  <line class="fil0 str0" x1="7411" y1="103" x2="7411" y2= "303" />
  <line class="fil0 str0" x1="7411" y1="303" x2="7926" y2= "303" />
  <line class="fil0 str0" x1="7926" y1="103" x2="7926" y2= "303" />
  <line class="fil0 str0" x1="7926" y1="103" x2="8442" y2= "103" />
  <line class="fil0 str0" x1="8442" y1="103" x2="8442" y2= "303" />
  <line class="fil0 str0" x1="8442" y1="303" x2="8958" y2= "303" />
  <line class="fil0 str0" x1="8958" y1="103" x2="8958" y2= "303" />
  <line class="fil0 str0" x1="8958" y1="103" x2="9474" y2= "103" />
  <line class="fil0 str0" x1="9474" y1="103" x2="9474" y2= "303" />
  <line class="fil0 str0" x1="9474" y1="303" x2="9989" y2= "303" />
  <line class="fil0 str0" x1="9989" y1="103" x2="9989" y2= "303" />
  <line class="fil0 str0" x1="9989" y1="103" x2="10505" y2= "103" />
  <line class="fil0 str0" x1="10505" y1="103" x2="10505" y2= "303" />
  <line class="fil0 str0" x1="10505" y1="303" x2="11021" y2= "303" />
  <line class="fil0 str0" x1="11021" y1="103" x2="11021" y2= "303" />
  <line class="fil0 str0" x1="11021" y1="103" x2="11536" y2= "103" />
  <line class="fil0 str0" x1="11536" y1="103" x2="11536" y2= "303" />
  <line class="fil0 str0" x1="11536" y1="303" x2="12052" y2= "303" />
  <line class="fil0 str0" x1="12052" y1="103" x2="12052" y2= "303" />
  <line class="fil0 str0" x1="12052" y1="103" x2="12568" y2= "103" />
  <line class="fil0 str0" x1="12568" y1="103" x2="12568" y2= "303" />
  <line class="fil0 str0" x1="12568" y1="303" x2="13084" y2= "303" />
  <line class="fil0 str0" x1="13084" y1="103" x2="13084" y2= "303" />
  <line class="fil0 str0" x1="13084" y1="103" x2="13599" y2= "103" />
  <line class="fil0 str0" x1="13599" y1="103" x2="13599" y2= "303" />
  <line class="fil0 str0" x1="13599" y1="303" x2="14115" y2= "303" />
  <line class="fil0 str0" x1="14115" y1="103" x2="14115" y2= "303" />
  <line class="fil0 str0" x1="14115" y1="103" x2="14631" y2= "103" />
  <line class="fil0 str0" x1="14631" y1="103" x2="14631" y2= "303" />
  <line class="fil0 str0" x1="14631" y1="303" x2="15146" y2= "303" />
  <line class="fil0 str0" x1="15146" y1="103" x2="15146" y2= "303" />
  <line class="fil0 str0" x1="15146" y1="103" x2="15662" y2= "103" />
  <line class="fil0 str0" x1="15662" y1="103" x2="15662" y2= "303" />
  <line class="fil0 str0" x1="15662" y1="303" x2="16178" y2= "303" />
  <line class="fil0 str0" x1="16178" y1="103" x2="16178" y2= "303" />
  <line class="fil0 str0" x1="16178" y1="103" x2="16694" y2= "103" />
  <line class="fil0 str0" x1="16694" y1="103" x2="16694" y2= "303" />
  <line class="fil0 str0" x1="16694" y1="303" x2="17209" y2= "303" />
  <line class="fil0 str0" x1="17209" y1="103" x2="17209" y2= "303" />
  <line class="fil0 str0" x1="17209" y1="103" x2="17725" y2= "103" />
  <line class="fil0 str0" x1="17725" y1="103" x2="17725" y2= "303" />
  <line class="fil0 str0" x1="17725" y1="303" x2="18041" y2= "303" />
  <line class="fil0 str0" x1="391" y1="4653" x2="391" y2= "4326" />
  <line class="fil0 str0" x1="391" y1="4326" x2="191" y2= "4326" />
  <line class="fil0 str0" x1="191" y1="4326" x2="191" y2= "3798" />
  <line class="fil0 str0" x1="391" y1="3798" x2="191" y2= "3798" />
  <line class="fil0 str0" x1="391" y1="3798" x2="391" y2= "3270" />
  <line class="fil0 str0" x1="391" y1="3270" x2="191" y2= "3270" />
  <line class="fil0 str0" x1="191" y1="3270" x2="191" y2= "2742" />
  <line class="fil0 str0" x1="391" y1="2742" x2="191" y2= "2742" />
  <line class="fil0 str0" x1="391" y1="2742" x2="391" y2= "2214" />
  <line class="fil0 str0" x1="391" y1="2214" x2="191" y2= "2214" />
  <line class="fil0 str0" x1="191" y1="2214" x2="191" y2= "1687" />
  <line class="fil0 str0" x1="391" y1="1687" x2="191" y2= "1687" />
  <line class="fil0 str0" x1="391" y1="1687" x2="391" y2= "1159" />
  <line class="fil0 str0" x1="391" y1="1159" x2="191" y2= "1159" />
  <line class="fil0 str0" x1="191" y1="1159" x2="191" y2= "631" />
  <line class="fil0 str0" x1="391" y1="631" x2="191" y2= "631" />
  <line class="fil0 str0" x1="391" y1="631" x2="391" y2= "303" />
  <line class="fil0 str0" x1="18041" y1="4653" x2="18041" y2= "4326" />
  <line class="fil0 str0" x1="18241" y1="4326" x2="18041" y2= "4326" />
  <line class="fil0 str0" x1="18241" y1="4326" x2="18241" y2= "3798" />
  <line class="fil0 str0" x1="18241" y1="3798" x2="18041" y2= "3798" />
  <line class="fil0 str0" x1="18041" y1="3798" x2="18041" y2= "3270" />
  <line class="fil0 str0" x1="18241" y1="3270" x2="18041" y2= "3270" />
  <line class="fil0 str0" x1="18241" y1="3270" x2="18241" y2= "2742" />
  <line class="fil0 str0" x1="18241" y1="2742" x2="18041" y2= "2742" />
  <line class="fil0 str0" x1="18041" y1="2742" x2="18041" y2= "2214" />
  <line class="fil0 str0" x1="18241" y1="2214" x2="18041" y2= "2214" />
  <line class="fil0 str0" x1="18241" y1="2214" x2="18241" y2= "1687" />
  <line class="fil0 str0" x1="18241" y1="1687" x2="18041" y2= "1687" />
  <line class="fil0 str0" x1="18041" y1="1687" x2="18041" y2= "1159" />
  <line class="fil0 str0" x1="18241" y1="1159" x2="18041" y2= "1159" />
  <line class="fil0 str0" x1="18241" y1="1159" x2="18241" y2= "631" />
  <line class="fil0 str0" x1="18241" y1="631" x2="18041" y2= "631" />
  <line class="fil0 str0" x1="18041" y1="631" x2="18041" y2= "303" />
  <rect class="fil1 str0" x="2016" y="833" width="14000" height="3300"/>
  <circle class="fil1 str0" cx="5092" cy="565" r="30"/>
  <circle class="fil1 str0" cx="13333" cy="553" r="30"/>
  <circle class="fil1 str0" cx="9205" cy="553" r="30"/>
  <circle class="fil1 str0" cx="5092" cy="4375" r="30"/>
  <circle class="fil1 str0" cx="13333" cy="4363" r="30"/>
  <circle class="fil1 str0" cx="9205" cy="4363" r="30"/>
  <circle class="fil1 str0" cx="16394" cy="1531" r="30"/>
  <circle class="fil1 str0" cx="16394" cy="3436" r="30"/>
  <circle class="fil1 str0" cx="1598" cy="1531" r="30"/>
  <circle class="fil1 str0" cx="1598" cy="3436" r="30"/>
  <circle class="fil1 str0" cx="4076" cy="5234" r="30"/>
  <circle class="fil1 str0" cx="12317" cy="5222" r="30"/>
  <circle class="fil1 str0" cx="8190" cy="5222" r="30"/>
  <circle class="fil1 str0" cx="4076" cy="9044" r="30"/>
  <circle class="fil1 str0" cx="12317" cy="9032" r="30"/>
  <circle class="fil1 str0" cx="8190" cy="9032" r="30"/>
  <circle class="fil1 str0" cx="15379" cy="6200" r="30"/>
  <circle class="fil1 str0" cx="15379" cy="8105" r="30"/>
  <circle class="fil1 str0" cx="583" cy="6200" r="30"/>
  <circle class="fil1 str0" cx="583" cy="8105" r="30"/>
  <rect class="fil1 str0" x="250" y="5052" width="15500" height="4200"/>
 </g>
</svg>
